<svg xmlns="http://www.w3.org/2000/svg" viewBox="0 0 956 482.05"><defs><style>.prefix__prefix__st0{fill:#fff}</style></defs><g id="prefix__prefix__B_Corp_logo"><path d="M104.7 282.4h54.1c18.6 0 30.4-11.4 30.4-29.1 0-21.1-17-27-35.2-27h-49.3v56.1zm0-74.2h43.2c24.5 0 34.5-8.9 34.5-25.9 0-22.5-15.9-25.7-34.5-25.7h-43.2v51.6zm-21.6-69.8h58.8c14.3 0 33.2 0 42.9 5.9 10.7 6.4 19.1 17.9 19.1 33.8 0 17.3-9.1 30.2-24.1 36.3v.5c20 4.1 30.9 19.1 30.9 39.1 0 23.8-17 46.6-49.3 46.6H83l.1-162.2z" class="prefix__prefix__st0"/><path d="M142.6 77.4C64.1 77.4.5 141 .5 219.5s63.6 142.1 142.1 142.1S284.7 298 284.7 219.5c0-78.4-63.6-142.1-142.1-142.1M266 219.6c0 68.1-55.2 123.4-123.4 123.4-68.1 0-123.3-55.2-123.3-123.4 0-68.1 55.2-123.3 123.3-123.3S266 151.5 266 219.6M.8 391.6h283.6v18.6H.8zm265.9-23.4c.5-1 1.1-1.9 1.8-2.7.8-.8 1.7-1.3 2.7-1.8 1-.4 2.1-.6 3.3-.6 1.2 0 2.3.2 3.3.6s1.9 1 2.6 1.8c.8.8 1.4 1.6 1.8 2.7.5 1 .7 2.1.7 3.4 0 1.2-.2 2.3-.7 3.4-.4 1-1.1 1.9-1.8 2.7-.8.8-1.6 1.4-2.6 1.8s-2.1.6-3.3.6c-1.1 0-2.2-.2-3.3-.6-1-.4-1.9-1-2.7-1.8-.8-.8-1.4-1.6-1.8-2.7-.5-1-.7-2.1-.7-3.4s.2-2.3.7-3.4m1.4 6.2c.3.9.8 1.7 1.5 2.3.6.6 1.4 1.2 2.2 1.5.8.4 1.8.5 2.7.5 1 0 1.9-.2 2.7-.5.8-.4 1.6-.9 2.2-1.5s1.1-1.4 1.5-2.3.5-1.8.5-2.9c0-1-.2-2-.5-2.8-.3-.9-.8-1.6-1.5-2.3-.6-.6-1.4-1.1-2.2-1.5-.8-.4-1.8-.5-2.7-.5-1 0-1.9.2-2.7.5-.9.4-1.6.9-2.2 1.5s-1.1 1.4-1.5 2.3-.5 1.8-.5 2.8c0 1.1.2 2.1.5 2.9m7-7.7c1.2 0 2 .2 2.6.7s.9 1.2.9 2.1-.3 1.5-.8 2c-.5.4-1.1.6-1.9.7l2.8 4.4h-1.6l-2.7-4.3h-1.6v4.3h-1.5v-9.9h3.8zm-.7 4.4h1c.3 0 .6-.1.8-.2.2-.1.4-.3.6-.5.1-.2.2-.5.2-.9 0-.3-.1-.6-.2-.8-.1-.2-.3-.4-.5-.5s-.4-.2-.7-.2h-2.8v3.1h1.6zM35.2 15c-.7-1.1-1.5-2-2.5-2.8s-2.1-1.4-3.4-1.9c-1.3-.4-2.6-.7-4-.7-2.5 0-4.7.5-6.5 1.5s-3.2 2.3-4.3 3.9c-1.1 1.7-1.9 3.5-2.4 5.6s-.8 4.3-.8 6.5.2 4.2.8 6.3c.5 2 1.3 3.9 2.4 5.5s2.5 2.9 4.3 3.9 3.9 1.5 6.5 1.5c3.4 0 6.1-1.1 8.1-3.2s3.1-4.9 3.6-8.3h10.9c-.3 3.2-1 6.1-2.2 8.7s-2.8 4.8-4.7 6.6-4.3 3.2-6.9 4.2-5.5 1.4-8.7 1.4c-3.9 0-7.5-.7-10.6-2.1S9 48.4 6.9 46c-2.2-2.4-3.8-5.2-5-8.4S.2 30.9.2 27.2c0-3.8.6-7.4 1.7-10.7s2.8-6.1 5-8.6c2.2-2.4 4.8-4.4 7.9-5.8S21.5 0 25.4 0c2.8 0 5.5.4 8 1.2s4.8 2 6.8 3.6 3.6 3.5 4.9 5.8 2.1 4.9 2.4 7.9H36.6c-.3-1.3-.8-2.5-1.4-3.5M74 24.1c-1.2-1.3-3.1-2-5.6-2-1.6 0-3 .3-4.1.8s-1.9 1.2-2.6 2.1c-.7.8-1.1 1.7-1.4 2.6s-.4 1.7-.5 2.4h16.6c-.3-2.6-1.1-4.5-2.4-5.9M62.5 43.6c1.5 1.5 3.7 2.2 6.6 2.2 2.1 0 3.8-.5 5.3-1.6 1.5-1 2.4-2.1 2.7-3.3h9c-1.4 4.4-3.6 7.6-6.6 9.6s-6.6 2.9-10.8 2.9c-2.9 0-5.6-.5-7.9-1.4-2.3-.9-4.3-2.3-6-4-1.6-1.7-2.9-3.8-3.8-6.2-.9-2.4-1.3-5-1.3-7.9 0-2.8.5-5.4 1.4-7.8s2.2-4.5 3.9-6.2c1.7-1.8 3.7-3.1 6-4.1 2.3-1 4.9-1.5 7.7-1.5 3.2 0 5.9.6 8.3 1.8 2.3 1.2 4.3 2.9 5.8 4.9s2.6 4.4 3.3 7 .9 5.4.7 8.3H60c.1 3.5 1 5.9 2.5 7.3m38.6-28.2v6.9h.1c.5-1.2 1.1-2.2 1.9-3.2.8-1 1.8-1.8 2.8-2.5 1.1-.7 2.2-1.2 3.4-1.6s2.4-.6 3.7-.6c.7 0 1.4.1 2.2.4v9.5c-.5-.1-1.1-.2-1.7-.2s-1.3-.1-1.9-.1c-1.9 0-3.4.3-4.7.9s-2.3 1.5-3.1 2.6-1.4 2.3-1.7 3.8c-.3 1.4-.5 3-.5 4.7v16.7H91.4V15.4h9.7zm41.5 0v6.8h-7.5v18.4c0 1.7.3 2.9.9 3.4.6.6 1.7.9 3.4.9.6 0 1.1 0 1.6-.1s1-.1 1.5-.2v7.9c-.9.1-1.8.2-2.9.3-1.1.1-2.1.1-3.1.1-1.6 0-3.1-.1-4.5-.3s-2.6-.6-3.7-1.2-1.9-1.5-2.6-2.7c-.6-1.2-.9-2.7-.9-4.5V22.3h-6.1v-6.8h6.2V4.3h10.2v11.1h7.5zm16.1 37.2h-10.2V15.4h10.2v37.2zM148.5 1.3h10.2v8.4h-10.2V1.3zm14.3 21v-6.8h6.1v-2.9c0-3.3 1-6 3.1-8.1s5.2-3.2 9.3-3.2c.9 0 1.8 0 2.7.1s1.8.1 2.6.2v7.6c-1.2-.2-2.4-.2-3.7-.2-1.4 0-2.4.3-3 1s-.9 1.7-.9 3.3v2.2h7v6.8h-7v30.3h-10.2V22.3h-6zm40.4 30.3H193V15.4h10.2v37.2zM193 1.3h10.2v8.4H193V1.3zm37.8 22.8c-1.2-1.3-3.1-2-5.6-2-1.6 0-3 .3-4.1.8s-1.9 1.2-2.6 2.1-1.1 1.7-1.4 2.6-.4 1.7-.5 2.4h16.6c-.3-2.6-1.1-4.5-2.4-5.9m-11.5 19.5c1.5 1.5 3.7 2.2 6.6 2.2 2.1 0 3.8-.5 5.3-1.6 1.5-1 2.4-2.1 2.7-3.3h9c-1.4 4.4-3.6 7.6-6.6 9.6-3 1.9-6.6 2.9-10.8 2.9-2.9 0-5.6-.5-7.9-1.4-2.4-.9-4.3-2.3-6-4-1.6-1.7-2.9-3.8-3.8-6.2-.9-2.4-1.3-5-1.3-7.9 0-2.8.5-5.4 1.4-7.8s2.2-4.5 3.9-6.2c1.7-1.8 3.7-3.1 6-4.1s4.9-1.5 7.7-1.5c3.2 0 5.9.6 8.3 1.8s4.3 2.9 5.8 4.9 2.6 4.4 3.3 7c.7 2.6.9 5.4.7 8.3h-26.8c.2 3.5 1 5.9 2.5 7.3m54.8-14.1c-.3-1.4-.8-2.7-1.5-3.7s-1.6-1.9-2.7-2.6-2.5-1-4.2-1-3.1.3-4.2 1-2.1 1.6-2.8 2.7c-.7 1.1-1.2 2.4-1.5 3.8s-.5 2.9-.5 4.4c0 1.4.2 2.9.5 4.3s.9 2.7 1.6 3.8c.8 1.1 1.7 2 2.8 2.7 1.1.7 2.5 1 4.1 1 1.7 0 3.1-.3 4.2-1s2-1.6 2.7-2.7 1.1-2.4 1.4-3.8.4-2.9.4-4.4c.2-1.6 0-3.1-.3-4.5m.5 18.3c-1.2 2-2.8 3.5-4.7 4.3s-4.1 1.3-6.6 1.3c-2.8 0-5.2-.5-7.3-1.6-2.1-1.1-3.9-2.5-5.2-4.4-1.4-1.8-2.4-4-3.1-6.4s-1-4.9-1-7.5c0-2.5.3-4.9 1-7.2s1.7-4.4 3.1-6.1c1.4-1.8 3.1-3.2 5.1-4.3 2.1-1.1 4.5-1.6 7.2-1.6 2.2 0 4.3.5 6.3 1.4s3.6 2.3 4.7 4.1h.1V1.3h10.2v51.3h-9.7v-4.7l-.1-.1zm-248.9 399c-.5-3.6-3.9-6.3-7.9-6.3-7.1 0-9.8 6.1-9.8 12.4 0 6 2.7 12.1 9.8 12.1 4.8 0 7.6-3.3 8.2-8.1h7.7c-.8 9-7 14.8-15.9 14.8-11.2 0-17.8-8.3-17.8-18.8 0-10.7 6.6-19.1 17.8-19.1 7.9 0 14.6 4.7 15.6 13h-7.7zm24.6 19.3c4.9 0 6.4-4.2 6.4-8.3 0-4.2-1.5-8.4-6.4-8.4-4.8 0-6.3 4.2-6.3 8.4-.1 4.1 1.4 8.3 6.3 8.3m0-22.1c8.2 0 13.6 5.5 13.6 13.8s-5.3 13.8-13.6 13.8c-8.2 0-13.5-5.5-13.5-13.8 0-8.4 5.3-13.8 13.5-13.8m17.9.6H75v4.9h.1c1.3-3.3 4.9-5.6 8.4-5.6.5 0 1.1.1 1.6.2v6.7c-.7-.1-1.7-.2-2.6-.2-5.3 0-7.1 3.8-7.1 8.4v11.8h-7.2v-26.2zm39.1 13.2c0-4.2-1.7-8.5-6.3-8.5-4.7 0-6.2 4.2-6.2 8.5 0 4.2 1.6 8.3 6.3 8.3 4.7 0 6.2-4.1 6.2-8.3m-19.4-13.1h6.8v3.3h.1c1.7-2.8 4.6-4 7.8-4 8.2 0 11.9 6.6 11.9 14.1 0 7-3.8 13.5-11.5 13.5-3.1 0-6.1-1.4-7.8-3.9h-.1v12.4h-7.2v-35.4zm42.4 21.4c4.9 0 6.4-4.2 6.4-8.3 0-4.2-1.5-8.4-6.4-8.4s-6.3 4.2-6.3 8.4c-.1 4.1 1.4 8.3 6.3 8.3m0-22.1c8.2 0 13.6 5.5 13.6 13.8s-5.3 13.8-13.6 13.8c-8.2 0-13.5-5.5-13.5-13.8 0-8.4 5.3-13.8 13.5-13.8m18 .6h6.8v4.9h.1c1.3-3.3 4.9-5.6 8.3-5.6.5 0 1.1.1 1.6.2v6.7c-.7-.1-1.7-.2-2.6-.2-5.3 0-7.1 3.8-7.1 8.4v11.8h-7.2l.1-26.2zm35.5 13.4c-1.2 1.1-3.7 1.1-6 1.5-2.2.5-4.2 1.2-4.2 3.8 0 2.7 2.1 3.3 4.4 3.3 5.6 0 5.8-4.5 5.8-6V458zm-16.6-5.3c.4-6.7 6.4-8.8 12.3-8.8 5.2 0 11.5 1.2 11.5 7.4v13.6c0 2.4.2 4.8.9 5.8h-7.3c-.2-.8-.5-1.7-.5-2.5-2.3 2.4-5.6 3.2-8.8 3.2-5 0-8.9-2.5-8.9-7.8 0-5.9 4.5-7.3 8.9-7.9 4.4-.7 8.5-.5 8.5-3.4 0-3.1-2.1-3.5-4.7-3.5-2.7 0-4.5 1.1-4.8 3.9h-7.1zm38.3-8h5.3v4.8h-5.3v12.9c0 2.4.6 3 3 3 .8 0 1.5 0 2.2-.2v5.6c-1.2.2-2.8.2-4.2.2-4.4 0-8.2-1-8.2-6.2v-15.4h-4.4v-4.8h4.4v-7.8h7.2v7.9zm10.7 0h7.2v26.1h-7.2v-26.1zm7.1-4.1h-7.2v-5.9h7.2v5.9zm18.4 25.5c4.9 0 6.4-4.2 6.4-8.3 0-4.2-1.5-8.4-6.4-8.4s-6.3 4.2-6.3 8.4c-.1 4.1 1.4 8.3 6.3 8.3m0-22.1c8.2 0 13.6 5.5 13.6 13.8s-5.3 13.8-13.6 13.8c-8.2 0-13.5-5.5-13.5-13.8 0-8.4 5.3-13.8 13.5-13.8m18.2.7h6.8v3.6h.1c1.8-2.9 5-4.4 8-4.4 7.6 0 9.5 4.3 9.5 10.8v16.1h-7.2V456c0-4.3-1.3-6.4-4.6-6.4-3.9 0-5.6 2.2-5.6 7.5v13.7h-7.2l.2-26.1z" class="prefix__prefix__st0"/><path d="M104.7 282.4h54.1c18.6 0 30.4-11.4 30.4-29.1 0-21.1-17-27-35.2-27h-49.3v56.1zm0-74.2h43.2c24.5 0 34.5-8.9 34.5-25.9 0-22.5-15.9-25.7-34.5-25.7h-43.2v51.6zm-21.6-69.8h58.8c14.3 0 33.2 0 42.9 5.9 10.7 6.4 19.1 17.9 19.1 33.8 0 17.3-9.1 30.2-24.1 36.3v.5c20 4.1 30.9 19.1 30.9 39.1 0 23.8-17 46.6-49.3 46.6H83l.1-162.2z" class="prefix__prefix__st0"/><path d="M142.6 77.4C64.1 77.4.5 141 .5 219.5s63.6 142.1 142.1 142.1S284.7 298 284.7 219.5c0-78.4-63.6-142.1-142.1-142.1M266 219.6c0 68.1-55.2 123.4-123.4 123.4-68.1 0-123.3-55.2-123.3-123.4 0-68.1 55.2-123.3 123.3-123.3S266 151.5 266 219.6M.8 391.6h283.6v18.6H.8zm265.9-23.4c.5-1 1.1-1.9 1.8-2.7.8-.8 1.7-1.3 2.7-1.8 1-.4 2.1-.6 3.3-.6 1.2 0 2.3.2 3.3.6s1.9 1 2.6 1.8c.8.8 1.4 1.6 1.8 2.7.5 1 .7 2.1.7 3.4 0 1.2-.2 2.3-.7 3.4-.4 1-1.1 1.9-1.8 2.7-.8.8-1.6 1.4-2.6 1.8s-2.1.6-3.3.6c-1.1 0-2.2-.2-3.3-.6-1-.4-1.9-1-2.7-1.8-.8-.8-1.4-1.6-1.8-2.7-.5-1-.7-2.1-.7-3.4s.2-2.3.7-3.4m1.4 6.2c.3.9.8 1.7 1.5 2.3.6.6 1.4 1.2 2.2 1.5.8.4 1.8.5 2.7.5 1 0 1.9-.2 2.7-.5.8-.4 1.6-.9 2.2-1.5s1.1-1.4 1.5-2.3.5-1.8.5-2.9c0-1-.2-2-.5-2.8-.3-.9-.8-1.6-1.5-2.3-.6-.6-1.4-1.1-2.2-1.5-.8-.4-1.8-.5-2.7-.5-1 0-1.9.2-2.7.5-.9.4-1.6.9-2.2 1.5s-1.1 1.4-1.5 2.3-.5 1.8-.5 2.8c0 1.1.2 2.1.5 2.9m7-7.7c1.2 0 2 .2 2.6.7s.9 1.2.9 2.1-.3 1.5-.8 2c-.5.4-1.1.6-1.9.7l2.8 4.4h-1.6l-2.7-4.3h-1.6v4.3h-1.5v-9.9h3.8zm-.7 4.4h1c.3 0 .6-.1.8-.2.2-.1.4-.3.6-.5.1-.2.2-.5.2-.9 0-.3-.1-.6-.2-.8-.1-.2-.3-.4-.5-.5s-.4-.2-.7-.2h-2.8v3.1h1.6zM35.2 15c-.7-1.1-1.5-2-2.5-2.8s-2.1-1.4-3.4-1.9c-1.3-.4-2.6-.7-4-.7-2.5 0-4.7.5-6.5 1.5s-3.2 2.3-4.3 3.9c-1.1 1.7-1.9 3.5-2.4 5.6s-.8 4.3-.8 6.5.2 4.2.8 6.3c.5 2 1.3 3.9 2.4 5.5s2.5 2.9 4.3 3.9 3.9 1.5 6.5 1.5c3.4 0 6.1-1.1 8.1-3.2s3.1-4.9 3.6-8.3h10.9c-.3 3.2-1 6.1-2.2 8.7s-2.8 4.8-4.7 6.6-4.3 3.2-6.9 4.2-5.5 1.4-8.7 1.4c-3.9 0-7.5-.7-10.6-2.1S9 48.4 6.9 46c-2.2-2.4-3.8-5.2-5-8.4S.2 30.9.2 27.2c0-3.8.6-7.4 1.7-10.7s2.8-6.1 5-8.6c2.2-2.4 4.8-4.4 7.9-5.8S21.5 0 25.4 0c2.8 0 5.5.4 8 1.2s4.8 2 6.8 3.6 3.6 3.5 4.9 5.8 2.1 4.9 2.4 7.9H36.6c-.3-1.3-.8-2.5-1.4-3.5M74 24.1c-1.2-1.3-3.1-2-5.6-2-1.6 0-3 .3-4.1.8s-1.9 1.2-2.6 2.1c-.7.8-1.1 1.7-1.4 2.6s-.4 1.7-.5 2.4h16.6c-.3-2.6-1.1-4.5-2.4-5.9M62.5 43.6c1.5 1.5 3.7 2.2 6.6 2.2 2.1 0 3.8-.5 5.3-1.6 1.5-1 2.4-2.1 2.7-3.3h9c-1.4 4.4-3.6 7.6-6.6 9.6s-6.6 2.9-10.8 2.9c-2.9 0-5.6-.5-7.9-1.4-2.3-.9-4.3-2.3-6-4-1.6-1.7-2.9-3.8-3.8-6.2-.9-2.4-1.3-5-1.3-7.9 0-2.8.5-5.4 1.4-7.8s2.2-4.5 3.9-6.2c1.7-1.8 3.7-3.1 6-4.1 2.3-1 4.9-1.5 7.7-1.5 3.2 0 5.9.6 8.3 1.8 2.3 1.2 4.3 2.9 5.8 4.9s2.6 4.4 3.3 7 .9 5.4.7 8.3H60c.1 3.5 1 5.9 2.5 7.3m38.6-28.2v6.9h.1c.5-1.2 1.1-2.2 1.9-3.2.8-1 1.8-1.8 2.8-2.5 1.1-.7 2.2-1.2 3.4-1.6s2.4-.6 3.7-.6c.7 0 1.4.1 2.2.4v9.5c-.5-.1-1.1-.2-1.7-.2s-1.3-.1-1.9-.1c-1.9 0-3.4.3-4.7.9s-2.3 1.5-3.1 2.6-1.4 2.3-1.7 3.8c-.3 1.4-.5 3-.5 4.7v16.7H91.4V15.4h9.7zm41.5 0v6.8h-7.5v18.4c0 1.7.3 2.9.9 3.4.6.6 1.7.9 3.4.9.6 0 1.1 0 1.6-.1s1-.1 1.5-.2v7.9c-.9.1-1.8.2-2.9.3-1.1.1-2.1.1-3.1.1-1.6 0-3.1-.1-4.5-.3s-2.6-.6-3.7-1.2-1.9-1.5-2.6-2.7c-.6-1.2-.9-2.7-.9-4.5V22.3h-6.1v-6.8h6.2V4.3h10.2v11.1h7.5zm16.1 37.2h-10.2V15.4h10.2v37.2zM148.5 1.3h10.2v8.4h-10.2V1.3zm14.3 21v-6.8h6.1v-2.9c0-3.3 1-6 3.1-8.1s5.2-3.2 9.3-3.2c.9 0 1.8 0 2.7.1s1.8.1 2.6.2v7.6c-1.2-.2-2.4-.2-3.7-.2-1.4 0-2.4.3-3 1s-.9 1.7-.9 3.3v2.2h7v6.8h-7v30.3h-10.2V22.3h-6zm40.4 30.3H193V15.4h10.2v37.2zM193 1.3h10.2v8.4H193V1.3zm37.8 22.8c-1.2-1.3-3.1-2-5.6-2-1.6 0-3 .3-4.1.8s-1.9 1.2-2.6 2.1-1.1 1.7-1.4 2.6-.4 1.7-.5 2.4h16.6c-.3-2.6-1.1-4.5-2.4-5.9m-11.5 19.5c1.5 1.5 3.7 2.2 6.6 2.2 2.1 0 3.8-.5 5.3-1.6 1.5-1 2.4-2.1 2.7-3.3h9c-1.4 4.4-3.6 7.6-6.6 9.6-3 1.9-6.6 2.9-10.8 2.9-2.9 0-5.6-.5-7.9-1.4-2.4-.9-4.3-2.3-6-4-1.6-1.7-2.9-3.8-3.8-6.2-.9-2.4-1.3-5-1.3-7.9 0-2.8.5-5.4 1.4-7.8s2.2-4.5 3.9-6.2c1.7-1.8 3.7-3.1 6-4.1s4.9-1.5 7.7-1.5c3.2 0 5.9.6 8.3 1.8s4.3 2.9 5.8 4.9 2.6 4.4 3.3 7c.7 2.6.9 5.4.7 8.3h-26.8c.2 3.5 1 5.9 2.5 7.3m54.8-14.1c-.3-1.4-.8-2.7-1.5-3.7s-1.6-1.9-2.7-2.6-2.5-1-4.2-1-3.1.3-4.2 1-2.1 1.6-2.8 2.7c-.7 1.1-1.2 2.4-1.5 3.8s-.5 2.9-.5 4.4c0 1.4.2 2.9.5 4.3s.9 2.7 1.6 3.8c.8 1.1 1.7 2 2.8 2.7 1.1.7 2.5 1 4.1 1 1.7 0 3.1-.3 4.2-1s2-1.6 2.7-2.7 1.1-2.4 1.4-3.8.4-2.9.4-4.4c.2-1.6 0-3.1-.3-4.5m.5 18.3c-1.2 2-2.8 3.5-4.7 4.3s-4.1 1.3-6.6 1.3c-2.8 0-5.2-.5-7.3-1.6-2.1-1.1-3.9-2.5-5.2-4.4-1.4-1.8-2.4-4-3.1-6.4s-1-4.9-1-7.5c0-2.5.3-4.9 1-7.2s1.7-4.4 3.1-6.1c1.4-1.8 3.1-3.2 5.1-4.3 2.1-1.1 4.5-1.6 7.2-1.6 2.2 0 4.3.5 6.3 1.4s3.6 2.3 4.7 4.1h.1V1.3h10.2v51.3h-9.7v-4.7l-.1-.1zm-248.9 399c-.5-3.6-3.9-6.3-7.9-6.3-7.1 0-9.8 6.1-9.8 12.4 0 6 2.7 12.1 9.8 12.1 4.8 0 7.6-3.3 8.2-8.1h7.7c-.8 9-7 14.8-15.9 14.8-11.2 0-17.8-8.3-17.8-18.8 0-10.7 6.6-19.1 17.8-19.1 7.9 0 14.6 4.7 15.6 13h-7.7zm24.6 19.3c4.9 0 6.4-4.2 6.4-8.3 0-4.2-1.5-8.4-6.4-8.4-4.8 0-6.3 4.2-6.3 8.4-.1 4.1 1.4 8.3 6.3 8.3m0-22.1c8.2 0 13.6 5.5 13.6 13.8s-5.3 13.8-13.6 13.8c-8.2 0-13.5-5.5-13.5-13.8 0-8.4 5.3-13.8 13.5-13.8m17.9.6H75v4.9h.1c1.3-3.3 4.9-5.6 8.4-5.6.5 0 1.1.1 1.6.2v6.7c-.7-.1-1.7-.2-2.6-.2-5.3 0-7.1 3.8-7.1 8.4v11.8h-7.2v-26.2zm39.1 13.2c0-4.2-1.7-8.5-6.3-8.5-4.7 0-6.2 4.2-6.2 8.5 0 4.2 1.6 8.3 6.3 8.3 4.7 0 6.2-4.1 6.2-8.3m-19.4-13.1h6.8v3.3h.1c1.7-2.8 4.6-4 7.8-4 8.2 0 11.9 6.6 11.9 14.1 0 7-3.8 13.5-11.5 13.5-3.1 0-6.1-1.4-7.8-3.9h-.1v12.4h-7.2v-35.4zm42.4 21.4c4.9 0 6.4-4.2 6.4-8.3 0-4.2-1.5-8.4-6.4-8.4s-6.3 4.2-6.3 8.4c-.1 4.1 1.4 8.3 6.3 8.3m0-22.1c8.2 0 13.6 5.5 13.6 13.8s-5.3 13.8-13.6 13.8c-8.2 0-13.5-5.5-13.5-13.8 0-8.4 5.3-13.8 13.5-13.8m18 .6h6.8v4.9h.1c1.3-3.3 4.9-5.6 8.3-5.6.5 0 1.1.1 1.6.2v6.7c-.7-.1-1.7-.2-2.6-.2-5.3 0-7.1 3.8-7.1 8.4v11.8h-7.2l.1-26.2zm35.5 13.4c-1.2 1.1-3.7 1.1-6 1.5-2.2.5-4.2 1.2-4.2 3.8 0 2.7 2.1 3.3 4.4 3.3 5.6 0 5.8-4.5 5.8-6V458zm-16.6-5.3c.4-6.7 6.4-8.8 12.3-8.8 5.2 0 11.5 1.2 11.5 7.4v13.6c0 2.4.2 4.8.9 5.8h-7.3c-.2-.8-.5-1.7-.5-2.5-2.3 2.4-5.6 3.2-8.8 3.2-5 0-8.9-2.5-8.9-7.8 0-5.9 4.5-7.3 8.9-7.9 4.4-.7 8.5-.5 8.5-3.4 0-3.1-2.1-3.5-4.7-3.5-2.7 0-4.5 1.1-4.8 3.9h-7.1zm38.3-8h5.3v4.8h-5.3v12.9c0 2.4.6 3 3 3 .8 0 1.5 0 2.2-.2v5.6c-1.2.2-2.8.2-4.2.2-4.4 0-8.2-1-8.2-6.2v-15.4h-4.4v-4.8h4.4v-7.8h7.2v7.9zm10.7 0h7.2v26.1h-7.2v-26.1zm7.1-4.1h-7.2v-5.9h7.2v5.9zm18.4 25.5c4.9 0 6.4-4.2 6.4-8.3 0-4.2-1.5-8.4-6.4-8.4s-6.3 4.2-6.3 8.4c-.1 4.1 1.4 8.3 6.3 8.3m0-22.1c8.2 0 13.6 5.5 13.6 13.8s-5.3 13.8-13.6 13.8c-8.2 0-13.5-5.5-13.5-13.8 0-8.4 5.3-13.8 13.5-13.8m18.2.7h6.8v3.6h.1c1.8-2.9 5-4.4 8-4.4 7.6 0 9.5 4.3 9.5 10.8v16.1h-7.2V456c0-4.3-1.3-6.4-4.6-6.4-3.9 0-5.6 2.2-5.6 7.5v13.7h-7.2l.2-26.1z" class="prefix__prefix__st0"/></g><path id="prefix__prefix__Lockup" d="M410.3 203.9v-6.6h29.2v6.6h-10.7V233H421v-29.1h-10.7zm39.7-6.6v13.5h.2c.9-1.5 2-2.6 3.5-3.3 1.4-.7 2.8-1 4.1-1 1.9 0 3.5.3 4.7.8s2.2 1.2 2.9 2.1c.7.9 1.2 2 1.5 3.4.3 1.3.4 2.8.4 4.4V233H460v-14.6c0-2.1-.3-3.7-1-4.8-.7-1-1.9-1.6-3.6-1.6-1.9 0-3.3.6-4.2 1.7-.9 1.2-1.3 3-1.3 5.7V233h-7.1v-35.7h7.2zm22.7 5.9v-5.8h7.1v5.8h-7.1zm7.1 4V233h-7.1v-25.9l7.1.1zm11.6 19.4c.3.5.7 1 1.2 1.3s1.1.6 1.7.8 1.3.2 2 .2c.5 0 1-.1 1.6-.2.5-.1 1-.3 1.5-.5s.8-.6 1.1-1c.3-.4.5-.9.5-1.6 0-1.1-.7-1.9-2.1-2.4s-3.4-1.1-5.9-1.6c-1-.2-2-.5-3-.8s-1.9-.7-2.6-1.2c-.8-.5-1.4-1.2-1.8-2-.5-.8-.7-1.7-.7-2.9 0-1.7.3-3 1-4.1s1.5-1.9 2.6-2.5 2.3-1 3.6-1.3c1.3-.2 2.7-.4 4.1-.4s2.8.1 4.1.4c1.3.3 2.5.7 3.5 1.3s1.9 1.5 2.6 2.5 1.1 2.4 1.2 4h-6.8c-.1-1.4-.6-2.3-1.6-2.8-.9-.5-2-.7-3.3-.7-.4 0-.8 0-1.3.1s-.9.2-1.3.3c-.4.2-.7.4-1 .7s-.4.7-.4 1.3.2 1.1.7 1.5 1.1.7 1.8 1 1.6.5 2.6.7 2 .4 3 .7c1 .2 2 .5 3 .8s1.9.8 2.6 1.3 1.4 1.2 1.9 2 .7 1.8.7 3c0 1.7-.3 3.1-1 4.3-.7 1.1-1.6 2.1-2.7 2.8s-2.4 1.2-3.8 1.5-2.9.4-4.3.4c-1.5 0-3-.1-4.4-.4-1.4-.3-2.7-.8-3.8-1.5-1.1-.7-2-1.6-2.8-2.8-.7-1.2-1.1-2.6-1.2-4.3h6.8c-.1.9.1 1.5.4 2.1zm47.1-14.8c-1.1 0-2.1.3-2.8.8-.8.5-1.4 1.2-1.9 2s-.8 1.7-1 2.7-.3 2-.3 2.9.1 1.9.3 2.8c.2 1 .5 1.8 1 2.6s1.1 1.4 1.8 1.9c.8.5 1.7.8 2.8.8 1.7 0 3-.5 3.9-1.4s1.5-2.2 1.7-3.8h6.8c-.5 3.4-1.8 6-4 7.8s-5 2.7-8.4 2.7c-1.9 0-3.7-.3-5.3-1s-3-1.6-4.1-2.7c-1.1-1.2-2-2.6-2.6-4.2-.6-1.6-1-3.4-1-5.3 0-2 .3-3.9.9-5.6.6-1.7 1.4-3.2 2.6-4.5s2.5-2.2 4.2-2.9 3.5-1 5.6-1c1.5 0 3 .2 4.4.6 1.4.4 2.7 1 3.8 1.8s2 1.8 2.7 3 1.1 2.7 1.2 4.3h-6.9c-.6-2.8-2.4-4.3-5.4-4.3zm16.5 2.7c.6-1.7 1.5-3.1 2.7-4.3s2.6-2.1 4.2-2.8c1.6-.7 3.5-1 5.5-1s3.9.3 5.5 1 3.1 1.6 4.2 2.8c1.2 1.2 2.1 2.6 2.7 4.3.6 1.7 1 3.6 1 5.6s-.3 3.9-1 5.6c-.6 1.7-1.5 3.1-2.7 4.3s-2.6 2.1-4.2 2.7c-1.7.6-3.5.9-5.5.9s-3.9-.3-5.5-.9c-1.6-.6-3-1.5-4.2-2.7s-2.1-2.6-2.7-4.3c-.6-1.7-.9-3.5-.9-5.6s.3-3.9.9-5.6zm6.5 8.6c.2 1 .5 1.9 1 2.6.5.8 1.1 1.4 1.9 1.9.8.5 1.8.7 3 .7s2.2-.2 3-.7 1.5-1.1 1.9-1.9c.5-.8.8-1.7 1-2.6s.3-2 .3-3-.1-2.1-.3-3.1-.5-1.9-1-2.7-1.1-1.4-1.9-1.9c-.8-.5-1.8-.7-3-.7s-2.2.2-3 .7-1.4 1.1-1.9 1.9c-.5.8-.8 1.7-1 2.7s-.3 2-.3 3.1.1 2.1.3 3zm30.8-15.9v3.5h.1c.9-1.3 2.1-2.4 3.4-3.1 1.3-.7 2.8-1.1 4.5-1.1 1.6 0 3.1.3 4.5.9 1.3.6 2.4 1.8 3.1 3.4.8-1.1 1.8-2.1 3.1-3s2.9-1.3 4.7-1.3c1.4 0 2.6.2 3.8.5s2.2.9 3 1.6c.8.7 1.5 1.7 2 2.9s.7 2.6.7 4.3V233H618v-14.6c0-.9 0-1.7-.1-2.5s-.2-1.4-.5-2-.7-1-1.3-1.3-1.4-.5-2.4-.5-1.8.2-2.4.6c-.6.4-1.1.9-1.5 1.5s-.6 1.3-.7 2.1c-.1.8-.2 1.6-.2 2.4V233h-7.1v-16.8c0-.8-.2-1.4-.4-2.1-.2-.6-.7-1.1-1.2-1.5-.6-.4-1.4-.6-2.6-.6-.3 0-.8.1-1.3.2-.5.2-1.1.4-1.6.9-.5.4-1 1-1.3 1.8-.4.8-.5 1.8-.5 3.1v15h-7.1v-25.9h6.5v.1zm45.2 0v3.3h.1c.9-1.4 2-2.4 3.3-3.1 1.3-.6 2.8-.9 4.4-.9 2 0 3.8.4 5.2 1.2 1.5.8 2.7 1.8 3.7 3 1 1.3 1.7 2.7 2.1 4.4s.7 3.4.7 5.3c0 1.7-.2 3.4-.7 5s-1.2 3-2.1 4.2c-1 1.2-2.1 2.2-3.5 2.9s-3.1 1.1-5 1.1c-1.6 0-3.1-.3-4.4-1-1.3-.7-2.5-1.6-3.3-2.9h-.1v12.2h-7.1V207h6.7v.2zm9.2 20.5c.8-.5 1.4-1.1 1.9-1.8.5-.8.8-1.6 1-2.6s.3-2 .3-3.1c0-1-.1-2-.3-3s-.6-1.9-1.1-2.7-1.1-1.4-1.9-1.9c-.8-.5-1.7-.7-2.9-.7s-2.1.2-2.9.7c-.8.5-1.4 1.1-1.9 1.9-.5.8-.8 1.7-1 2.7s-.3 2-.3 3.1c0 1 .1 2.1.3 3.1s.6 1.9 1 2.6 1.1 1.4 1.9 1.8c.8.5 1.8.7 2.9.7 1.2-.1 2.2-.4 3-.8zm14.3-12.6c.1-1.7.5-3.1 1.2-4.2s1.7-2 2.8-2.7 2.4-1.1 3.8-1.4c1.4-.3 2.8-.4 4.3-.4 1.3 0 2.6.1 4 .3 1.3.2 2.5.5 3.7 1.1 1.1.5 2 1.3 2.7 2.2.7 1 1.1 2.2 1.1 3.8v13.5c0 1.2.1 2.3.2 3.4s.4 1.9.7 2.4h-7.2l-.3-1.2c-.1-.4-.1-.8-.2-1.3-1.1 1.2-2.5 2-4 2.5s-3.1.7-4.7.7c-1.2 0-2.4-.1-3.5-.4-1.1-.3-2-.8-2.8-1.4-.8-.6-1.4-1.4-1.9-2.4s-.7-2.1-.7-3.4c0-1.5.3-2.7.8-3.6.5-1 1.2-1.7 2-2.3s1.8-1 2.8-1.3 2.1-.5 3.2-.7c1.1-.2 2.1-.3 3.2-.4s2-.2 2.8-.5 1.4-.5 1.9-.9.7-.9.6-1.7c0-.8-.1-1.4-.4-1.8s-.6-.8-1-1-.9-.4-1.5-.5c-.5-.1-1.1-.1-1.8-.1-1.4 0-2.5.3-3.3.9-.8.6-1.3 1.6-1.4 3H661v-.2zm16.4 5.3c-.3.3-.7.5-1.1.6-.5.1-.9.3-1.5.4-.5.1-1.1.2-1.6.2s-1.1.1-1.7.2c-.5.1-1.1.2-1.6.4s-1 .4-1.4.7-.7.6-.9 1.1c-.2.4-.3 1-.3 1.6s.1 1.2.3 1.6c.2.4.5.8 1 1s.9.4 1.4.5 1.1.2 1.6.2c1.4 0 2.5-.2 3.2-.7.8-.5 1.3-1 1.7-1.7s.6-1.3.7-2c.1-.7.1-1.2.1-1.6l.1-2.5zm19.3-13.2v3.6h.1c.9-1.5 2.1-2.6 3.5-3.3s2.9-1 4.4-1c1.9 0 3.5.3 4.7.8s2.2 1.2 2.9 2.1 1.2 2 1.5 3.4c.3 1.3.4 2.8.4 4.4V233h-7.1v-14.6c0-2.1-.3-3.7-1-4.8s-1.8-1.6-3.5-1.6c-1.9 0-3.3.6-4.2 1.7-.9 1.2-1.3 3-1.3 5.7V233H690v-25.9l6.7.1zm32.5 33.5c-1.4.9-3.3 1.3-5.7 1.3-.7 0-1.5 0-2.2-.1s-1.4-.1-2.2-.2V236c.7.1 1.3.1 2 .2s1.4.1 2.1.1c.9-.1 1.6-.5 2.1-1.1s.7-1.3.7-2.1c0-.6-.1-1.1-.3-1.6l-9-24.2h7.5l5.9 17.7h.1l5.7-17.7h7.3l-10.8 29.1c-.8 1.9-1.9 3.4-3.2 4.3zm37.2-33.5v3.5h.1c.9-1.3 2.1-2.4 3.4-3.1 1.3-.7 2.8-1.1 4.5-1.1 1.6 0 3.1.3 4.5.9 1.3.6 2.4 1.8 3.1 3.4.8-1.1 1.8-2.1 3.1-3s2.9-1.3 4.7-1.3c1.4 0 2.6.2 3.8.5s2.2.9 3 1.6c.8.7 1.5 1.7 2 2.9s.7 2.6.7 4.3V233h-7.1v-14.6c0-.9 0-1.7-.1-2.5s-.2-1.4-.5-2-.7-1-1.3-1.3-1.4-.5-2.4-.5-1.8.2-2.4.6c-.6.4-1.1.9-1.5 1.5s-.6 1.3-.7 2.1c-.1.8-.2 1.6-.2 2.4V233H776v-16.8c0-.8-.2-1.4-.4-2.1-.2-.6-.7-1.1-1.2-1.5-.6-.4-1.4-.6-2.6-.6-.3 0-.8.1-1.3.2-.5.2-1.1.4-1.6.9-.5.4-1 1-1.3 1.8-.4.8-.5 1.8-.5 3.1v15H760v-25.9h6.4v.1zm46 19.6c1.1 1 2.6 1.6 4.6 1.6 1.4 0 2.7-.4 3.7-1.1 1-.7 1.7-1.5 1.9-2.3h6.2c-1 3.1-2.5 5.3-4.6 6.6s-4.6 2-7.5 2c-2 0-3.9-.3-5.5-1s-3-1.6-4.2-2.8c-1.1-1.2-2-2.6-2.6-4.3s-.9-3.5-.9-5.5c0-1.9.3-3.7 1-5.4.6-1.7 1.5-3.1 2.7-4.3s2.6-2.2 4.2-2.9c1.6-.7 3.4-1 5.4-1 2.2 0 4.1.4 5.8 1.3 1.6.8 3 2 4 3.4s1.8 3.1 2.3 4.9c.5 1.8.6 3.8.5 5.8h-18.7c0 2.3.6 4 1.7 5zm8-13.6c-.9-.9-2.1-1.4-3.9-1.4-1.1 0-2.1.2-2.8.6-.8.4-1.3.9-1.8 1.4-.5.6-.8 1.2-1 1.8s-.3 1.2-.3 1.7h11.5c-.3-1.8-.9-3.2-1.7-4.1zm20.7 13.6c1.1 1 2.6 1.6 4.6 1.6 1.4 0 2.7-.4 3.7-1.1 1-.7 1.7-1.5 1.9-2.3h6.2c-1 3.1-2.5 5.3-4.6 6.6s-4.6 2-7.5 2c-2 0-3.9-.3-5.5-1s-3-1.6-4.2-2.8c-1.1-1.2-2-2.6-2.6-4.3s-.9-3.5-.9-5.5c0-1.9.3-3.7 1-5.4.6-1.7 1.5-3.1 2.7-4.3s2.6-2.2 4.2-2.9c1.6-.7 3.4-1 5.4-1 2.2 0 4.1.4 5.8 1.3 1.6.8 3 2 4 3.4s1.8 3.1 2.3 4.9c.5 1.8.6 3.8.5 5.8h-18.7c0 2.3.6 4 1.7 5zm8-13.6c-.9-.9-2.1-1.4-3.9-1.4-1.1 0-2.1.2-2.8.6-.8.4-1.3.9-1.8 1.4-.5.6-.8 1.2-1 1.8s-.3 1.2-.3 1.7h11.5c-.3-1.8-.9-3.2-1.7-4.1zm27.3-6v4.8h-5.2v12.8c0 1.2.2 2 .6 2.4.4.4 1.2.6 2.4.6.4 0 .8 0 1.1-.1.4 0 .7-.1 1.1-.1v5.5c-.6.1-1.3.2-2 .2h-2.2c-1.1 0-2.1-.1-3.1-.2s-1.8-.4-2.6-.9c-.8-.4-1.3-1-1.8-1.8-.4-.8-.7-1.8-.7-3.2V212h-4.3v-4.8h4.3v-7.8h7.1v7.8h5.3zm9.3 19.4c.3.5.7 1 1.2 1.3s1.1.6 1.7.8c.7.2 1.3.2 2 .2.5 0 1-.1 1.6-.2.6-.1 1.1-.3 1.5-.5.5-.2.8-.6 1.1-1s.5-.9.5-1.6c0-1.1-.7-1.9-2.1-2.4-1.4-.5-3.4-1.1-5.9-1.6-1-.2-2-.5-3-.8s-1.9-.7-2.6-1.2c-.8-.5-1.4-1.2-1.8-2-.5-.8-.7-1.7-.7-2.9 0-1.7.3-3 1-4.1.6-1.1 1.5-1.9 2.6-2.5s2.3-1 3.6-1.3c1.3-.2 2.7-.4 4.1-.4 1.4 0 2.8.1 4.1.4 1.3.3 2.5.7 3.5 1.3s1.9 1.5 2.6 2.5c.7 1 1.1 2.4 1.2 4H895c-.1-1.4-.6-2.3-1.5-2.8s-2-.7-3.3-.7c-.4 0-.8 0-1.3.1s-.9.2-1.3.3c-.4.2-.7.4-1 .7s-.4.7-.4 1.3.2 1.1.7 1.5 1.1.7 1.8 1 1.6.5 2.6.7 2 .4 3 .7c1 .2 2 .5 3 .8s1.9.8 2.6 1.3 1.4 1.2 1.9 2 .7 1.8.7 3c0 1.7-.3 3.1-1 4.3-.7 1.1-1.6 2.1-2.7 2.8-1.1.7-2.4 1.2-3.8 1.5-1.4.3-2.9.4-4.3.4-1.5 0-3-.1-4.4-.4-1.4-.3-2.7-.8-3.8-1.5s-2-1.6-2.8-2.8-1.1-2.6-1.2-4.3h6.8c0 .9.1 1.5.4 2.1zm41.9-29.3v13.5h.2c.9-1.5 2-2.6 3.5-3.3 1.4-.7 2.8-1 4.1-1 1.9 0 3.5.3 4.7.8s2.2 1.2 2.9 2.1 1.2 2 1.5 3.4c.3 1.3.4 2.8.4 4.4V233h-7.1v-14.6c0-2.1-.3-3.7-1-4.8s-1.8-1.6-3.5-1.6c-1.9 0-3.3.6-4.2 1.7-.9 1.2-1.3 3-1.3 5.7V233h-7.1v-35.7h6.9zm22.8 5.9v-5.8h7.1v5.8h-7.1zm7.1 4V233h-7.1v-25.9l7.1.1zm30 27.7c-.3 1.3-.9 2.6-1.8 3.7s-2.3 2.1-4 2.9c-1.8.8-4.1 1.2-7.1 1.2-1.3 0-2.6-.2-3.9-.5-1.3-.3-2.5-.8-3.6-1.5s-2-1.5-2.7-2.6-1.1-2.3-1.2-3.8h7c.3 1.3 1 2.3 2 2.8s2.1.8 3.3.8c2 0 3.5-.6 4.4-1.8s1.4-2.7 1.3-4.6v-3.4h-.1c-.8 1.4-1.9 2.4-3.3 3-1.4.7-2.9 1-4.5 1-1.9 0-3.6-.3-5-1s-2.5-1.6-3.5-2.8c-.9-1.2-1.6-2.6-2-4.2-.4-1.6-.6-3.3-.6-5s.2-3.3.7-4.8 1.2-2.9 2.1-4.1c.9-1.2 2.1-2.1 3.5-2.8s3-1 4.8-1c1.7 0 3.2.3 4.5.9 1.3.6 2.4 1.7 3.2 3.2h.1V207h6.8v24.2c0 1.2-.1 2.4-.4 3.7zm-9.7-8.6c.8-.4 1.4-.9 1.9-1.6.5-.7.9-1.4 1.1-2.3s.4-1.7.4-2.7c0-1.1-.1-2.1-.3-3-.2-1-.5-1.8-1-2.5s-1.1-1.3-1.8-1.8c-.8-.4-1.7-.7-2.9-.7-1 0-1.9.2-2.6.6-.7.4-1.3.9-1.8 1.6-.5.7-.8 1.5-1 2.4s-.3 1.8-.3 2.8c0 .9.1 1.9.3 2.8.2.9.5 1.7.9 2.5.5.7 1 1.3 1.8 1.8.7.5 1.7.7 2.8.7.8 0 1.7-.2 2.5-.6zm22.9-29v13.5h.2c.9-1.5 2-2.6 3.5-3.3 1.4-.7 2.8-1 4.1-1 1.9 0 3.5.3 4.7.8s2.2 1.2 2.9 2.1 1.2 2 1.5 3.4c.3 1.3.4 2.8.4 4.4V233h-7.1v-14.6c0-2.1-.3-3.7-1-4.8s-1.8-1.6-3.5-1.6c-1.9 0-3.3.6-4.2 1.7-.9 1.2-1.3 3-1.3 5.7V233h-7.1v-35.7h6.9zm-582.4 89.3c.3.5.7 1 1.2 1.3s1.1.6 1.7.8c.7.2 1.3.2 2 .2.5 0 1-.1 1.6-.2.5-.1 1-.3 1.5-.5.4-.2.8-.6 1.1-1 .3-.4.4-.9.4-1.6 0-1.1-.7-1.9-2.1-2.4s-3.4-1.1-5.9-1.6c-1-.2-2-.5-3-.8s-1.9-.7-2.6-1.2c-.8-.5-1.4-1.2-1.9-2s-.7-1.7-.7-2.9c0-1.7.3-3 1-4.1.6-1.1 1.5-1.9 2.6-2.5s2.3-1 3.6-1.3c1.3-.2 2.7-.4 4.1-.4s2.8.1 4.1.4c1.3.3 2.5.7 3.5 1.3 1 .6 1.9 1.5 2.6 2.5s1.1 2.4 1.2 4h-6.8c-.1-1.4-.6-2.3-1.5-2.8s-2-.7-3.3-.7c-.4 0-.8 0-1.3.1s-.9.2-1.3.3c-.4.2-.7.4-1 .7s-.4.7-.4 1.3c0 .6.2 1.1.7 1.5s1.1.7 1.8 1 1.6.5 2.6.7 2 .4 3 .7c1 .2 2 .5 3 .8s1.9.8 2.6 1.3c.8.5 1.4 1.2 1.8 2 .5.8.7 1.8.7 3 0 1.7-.3 3.1-1 4.3-.7 1.1-1.6 2.1-2.7 2.8s-2.4 1.2-3.8 1.5-2.9.4-4.3.4c-1.5 0-3-.1-4.4-.4s-2.7-.8-3.8-1.5c-1.1-.7-2-1.6-2.8-2.8s-1.1-2.6-1.2-4.3h6.8c.1.9.3 1.5.6 2.1zm35.1-19.4v4.8h-5.2v12.8c0 1.2.2 2 .6 2.4s1.2.6 2.4.6c.4 0 .8 0 1.2-.1.4 0 .7-.1 1-.1v5.5c-.6.1-1.3.2-2 .2h-2.2c-1.1 0-2.1-.1-3.1-.2s-1.8-.4-2.6-.9c-.8-.4-1.3-1-1.8-1.8-.4-.8-.6-1.8-.6-3.2V272h-4.3v-4.8h4.3v-7.8h7.1v7.8h5.2zm3.1 7.9c.1-1.7.5-3.1 1.2-4.2s1.7-2 2.8-2.7c1.1-.7 2.4-1.1 3.8-1.4s2.8-.4 4.3-.4c1.3 0 2.6.1 4 .3s2.5.5 3.7 1.1c1.1.5 2 1.3 2.7 2.2.7 1 1 2.2 1 3.8v13.5c0 1.2.1 2.3.2 3.4s.4 1.9.7 2.4h-7.2l-.3-1.2c-.1-.4-.1-.8-.2-1.3-1.1 1.2-2.5 2-4 2.5s-3.1.7-4.7.7c-1.2 0-2.4-.1-3.5-.4s-2-.8-2.8-1.4-1.4-1.4-1.9-2.4-.7-2.1-.7-3.4c0-1.5.3-2.7.8-3.6.5-1 1.2-1.7 2-2.3.8-.6 1.8-1 2.8-1.3 1.1-.3 2.1-.5 3.2-.7s2.1-.3 3.1-.4 2-.2 2.8-.5 1.4-.5 1.9-.9.7-.9.6-1.7c0-.8-.1-1.4-.4-1.8s-.6-.8-1-1-.9-.4-1.4-.5c-.6-.1-1.1-.1-1.8-.1-1.4 0-2.5.3-3.3.9s-1.3 1.6-1.4 3h-7v-.2zm16.4 5.3c-.3.3-.7.5-1.1.6s-.9.3-1.4.4-1.1.2-1.6.2c-.6.1-1.1.1-1.7.2-.5.1-1.1.2-1.6.4s-1 .4-1.3.7c-.4.3-.7.6-.9 1.1-.2.4-.3 1-.3 1.6s.1 1.2.3 1.6c.2.4.6.8 1 1s.9.4 1.4.5 1.1.2 1.6.2c1.4 0 2.5-.2 3.2-.7.8-.5 1.3-1 1.7-1.7.4-.7.6-1.3.7-2s.1-1.2.1-1.6v-2.5h-.1zm19.3-13.2v3.6h.1c.9-1.5 2.1-2.6 3.5-3.3 1.4-.7 2.9-1 4.4-1 1.9 0 3.5.3 4.7.8s2.2 1.2 2.9 2.1 1.2 2 1.5 3.4.4 2.8.4 4.4V293h-7.1v-14.6c0-2.1-.3-3.7-1-4.8s-1.8-1.6-3.5-1.6c-1.9 0-3.3.6-4.2 1.7-.9 1.2-1.3 3-1.3 5.7V293h-7.1v-25.9h6.7v.1zm41.3 22.5c-.8 1.4-1.9 2.4-3.3 3-1.4.6-2.9.9-4.6.9-1.9 0-3.6-.4-5.1-1.1s-2.7-1.8-3.6-3-1.7-2.8-2.1-4.4c-.5-1.7-.7-3.4-.7-5.2 0-1.7.2-3.4.7-5s1.2-3 2.1-4.3c1-1.2 2.1-2.2 3.6-3 1.4-.8 3.1-1.1 5-1.1 1.5 0 3 .3 4.4 1s2.5 1.6 3.3 2.9h.1v-13h7.1V293h-6.8v-3.3h-.1zm-.3-12.8c-.2-1-.5-1.8-1-2.6s-1.1-1.4-1.9-1.8c-.8-.5-1.7-.7-2.9-.7s-2.1.2-2.9.7c-.8.5-1.4 1.1-1.9 1.9s-.8 1.6-1.1 2.6c-.2 1-.3 2-.3 3.1 0 1 .1 2 .3 3s.6 1.9 1.1 2.7c.5.8 1.2 1.4 2 1.9s1.7.7 2.8.7c1.2 0 2.1-.2 2.9-.7.8-.5 1.4-1.1 1.9-1.9s.8-1.7 1-2.7.3-2 .3-3.1-.1-2.1-.3-3.1zm12.2-1.8c.1-1.7.5-3.1 1.2-4.2s1.7-2 2.8-2.7 2.4-1.1 3.8-1.4c1.4-.3 2.8-.4 4.3-.4 1.3 0 2.6.1 4 .3 1.3.2 2.5.5 3.7 1.1 1.1.5 2 1.3 2.7 2.2.7 1 1.1 2.2 1.1 3.8v13.5c0 1.2.1 2.3.2 3.4s.4 1.9.7 2.4h-7.2l-.3-1.2c-.1-.4-.1-.8-.2-1.3-1.1 1.2-2.5 2-4 2.5s-3.1.7-4.7.7c-1.2 0-2.4-.1-3.5-.4s-2-.8-2.8-1.4-1.4-1.4-1.9-2.4-.7-2.1-.7-3.4c0-1.5.3-2.7.8-3.6.5-1 1.2-1.7 2-2.3.8-.6 1.8-1 2.8-1.3s2.1-.5 3.2-.7c1.1-.2 2.1-.3 3.2-.4s2-.2 2.8-.5 1.4-.5 1.9-.9.7-.9.6-1.7c0-.8-.1-1.4-.4-1.8s-.6-.8-1-1-.9-.4-1.5-.5c-.5-.1-1.1-.1-1.8-.1-1.4 0-2.5.3-3.3.9s-1.3 1.6-1.4 3h-7.1v-.2zm16.4 5.3c-.3.3-.7.5-1.1.6-.5.1-.9.3-1.5.4-.5.1-1.1.2-1.6.2s-1.1.1-1.7.2c-.5.1-1.1.2-1.6.4s-1 .4-1.4.7-.7.6-.9 1.1c-.2.4-.3 1-.3 1.6s.1 1.2.3 1.6.5.8 1 1 .9.4 1.4.5 1.1.2 1.6.2c1.4 0 2.5-.2 3.2-.7.8-.5 1.3-1 1.7-1.7s.6-1.3.7-2c.1-.7.1-1.2.1-1.6l.1-2.5zm19.3-13.2v4.8h.1c.3-.8.8-1.5 1.4-2.2.6-.7 1.2-1.3 1.9-1.8s1.5-.9 2.4-1.1c.8-.3 1.7-.4 2.6-.4.5 0 1 .1 1.5.2v6.6c-.3-.1-.7-.1-1.2-.2-.5 0-.9-.1-1.4-.1-1.3 0-2.4.2-3.3.7s-1.6 1-2.2 1.8-.9 1.6-1.2 2.6c-.2 1-.4 2.1-.4 3.2V293h-7.1v-25.9h6.9v.1zm30.2 22.5c-.8 1.4-1.9 2.4-3.3 3-1.4.6-2.9.9-4.6.9-1.9 0-3.6-.4-5.1-1.1s-2.7-1.8-3.6-3c-.9-1.3-1.7-2.8-2.1-4.4-.5-1.7-.7-3.4-.7-5.2 0-1.7.2-3.4.7-5s1.2-3 2.1-4.3c1-1.2 2.1-2.2 3.6-3 1.4-.8 3.1-1.1 5-1.1 1.5 0 3 .3 4.4 1s2.5 1.6 3.3 2.9h.1v-13h7.1V293h-6.8v-3.3h-.1zm-.3-12.8c-.2-1-.5-1.8-1-2.6s-1.1-1.4-1.9-1.8c-.8-.5-1.7-.7-2.9-.7s-2.2.2-3 .7-1.4 1.1-1.9 1.9-.8 1.6-1 2.6-.3 2-.3 3.1c0 1 .1 2 .3 3s.6 1.9 1.1 2.7 1.2 1.4 2 1.9 1.7.7 2.8.7c1.2 0 2.1-.2 2.9-.7.8-.5 1.4-1.1 1.9-1.9s.8-1.7 1-2.7.3-2 .3-3.1-.1-2.1-.3-3.1zm18.4 9.7c.3.5.7 1 1.2 1.3s1.1.6 1.7.8c.7.2 1.3.2 2 .2.5 0 1-.1 1.6-.2s1.1-.3 1.5-.5c.5-.2.8-.6 1.1-1s.5-.9.5-1.6c0-1.1-.7-1.9-2.1-2.4-1.4-.5-3.4-1.1-5.9-1.6-1-.2-2-.5-3-.8s-1.9-.7-2.6-1.2c-.8-.5-1.4-1.2-1.8-2-.5-.8-.7-1.7-.7-2.9 0-1.7.3-3 1-4.1.6-1.1 1.5-1.9 2.6-2.5s2.3-1 3.6-1.3c1.3-.2 2.7-.4 4.1-.4 1.4 0 2.8.1 4.1.4s2.5.7 3.5 1.3c1 .6 1.9 1.5 2.6 2.5.7 1 1.1 2.4 1.2 4h-6.8c-.1-1.4-.6-2.3-1.5-2.8s-2-.7-3.3-.7c-.4 0-.8 0-1.3.1s-.9.2-1.3.3c-.4.2-.7.4-1 .7s-.4.7-.4 1.3c0 .6.2 1.1.7 1.5s1.1.7 1.8 1 1.6.5 2.6.7 2 .4 3 .7c1 .2 2 .5 3 .8s1.9.8 2.6 1.3 1.4 1.2 1.9 2 .7 1.8.7 3c0 1.7-.3 3.1-1 4.3-.7 1.1-1.6 2.1-2.7 2.8-1.1.7-2.4 1.2-3.8 1.5-1.4.3-2.9.4-4.3.4-1.5 0-3-.1-4.4-.4s-2.7-.8-3.8-1.5-2-1.6-2.8-2.8-1.1-2.6-1.2-4.3h6.8c-.1.9 0 1.5.3 2.1zm35-12.1c.6-1.7 1.5-3.1 2.7-4.3 1.2-1.2 2.6-2.1 4.2-2.8 1.6-.7 3.5-1 5.5-1s3.9.3 5.5 1 3.1 1.6 4.2 2.8c1.2 1.2 2.1 2.6 2.7 4.3.6 1.7 1 3.6 1 5.6s-.3 3.9-1 5.6c-.6 1.7-1.5 3.1-2.7 4.3-1.2 1.2-2.6 2.1-4.2 2.7-1.7.6-3.5.9-5.5.9s-3.9-.3-5.5-.9-3-1.5-4.2-2.7-2.1-2.6-2.7-4.3c-.6-1.7-.9-3.5-.9-5.6s.2-3.9.9-5.6zm6.4 8.6c.2 1 .5 1.9 1 2.6.5.8 1.1 1.4 1.9 1.9.8.5 1.8.7 3 .7s2.2-.2 3-.7 1.5-1.1 1.9-1.9c.5-.8.8-1.7 1-2.6s.3-2 .3-3-.1-2.1-.3-3.1-.5-1.9-1-2.7c-.5-.8-1.1-1.4-1.9-1.9-.8-.5-1.8-.7-3-.7s-2.2.2-3 .7-1.4 1.1-1.9 1.9-.8 1.7-1 2.7-.3 2-.3 3.1.1 2.1.3 3zm21.3-11.2v-4.8h4.2v-2c0-2.3.7-4.2 2.2-5.6 1.4-1.5 3.6-2.2 6.5-2.2.6 0 1.3 0 1.9.1.6 0 1.2.1 1.9.1v5.3c-.8-.1-1.7-.2-2.6-.2-1 0-1.7.2-2.1.7-.4.4-.6 1.2-.6 2.3v1.5h4.9v4.8h-4.9V293h-7.1v-21.1h-4.3zm39.2 14.7c.3.5.7 1 1.2 1.3s1.1.6 1.7.8c.7.2 1.3.2 2 .2.5 0 1-.1 1.6-.2s1.1-.3 1.5-.5c.5-.2.8-.6 1.1-1s.5-.9.5-1.6c0-1.1-.7-1.9-2.1-2.4-1.4-.5-3.4-1.1-5.9-1.6-1-.2-2-.5-3-.8s-1.9-.7-2.6-1.2c-.8-.5-1.4-1.2-1.8-2-.5-.8-.7-1.7-.7-2.9 0-1.7.3-3 1-4.1.6-1.1 1.5-1.9 2.6-2.5s2.3-1 3.6-1.3c1.3-.2 2.7-.4 4.1-.4 1.4 0 2.8.1 4.1.4s2.5.7 3.5 1.3c1 .6 1.9 1.5 2.6 2.5.7 1 1.1 2.4 1.2 4h-6.8c-.1-1.4-.6-2.3-1.5-2.8s-2-.7-3.3-.7c-.4 0-.8 0-1.3.1s-.9.2-1.3.3c-.4.2-.7.4-1 .7s-.4.7-.4 1.3c0 .6.2 1.1.7 1.5s1.1.7 1.8 1 1.6.5 2.6.7 2 .4 3 .7c1 .2 2 .5 3 .8s1.9.8 2.6 1.3 1.4 1.2 1.9 2 .7 1.8.7 3c0 1.7-.3 3.1-1 4.3-.7 1.1-1.6 2.1-2.7 2.8-1.1.7-2.4 1.2-3.8 1.5-1.4.3-2.9.4-4.3.4-1.5 0-3-.1-4.4-.4s-2.7-.8-3.8-1.5-2-1.6-2.8-2.8-1.1-2.6-1.2-4.3h6.8c-.2.9 0 1.5.3 2.1zm21-12.1c.6-1.7 1.5-3.1 2.7-4.3 1.2-1.2 2.6-2.1 4.2-2.8 1.6-.7 3.5-1 5.5-1s3.9.3 5.5 1 3.1 1.6 4.2 2.8c1.2 1.2 2.1 2.6 2.7 4.3.6 1.7 1 3.6 1 5.6s-.3 3.9-1 5.6c-.6 1.7-1.5 3.1-2.7 4.3-1.2 1.2-2.6 2.1-4.2 2.7-1.7.6-3.5.9-5.5.9s-3.9-.3-5.5-.9-3-1.5-4.2-2.7-2.1-2.6-2.7-4.3c-.6-1.7-.9-3.5-.9-5.6s.3-3.9.9-5.6zm6.5 8.6c.2 1 .5 1.9 1 2.6.5.8 1.1 1.4 1.9 1.9.8.5 1.8.7 3 .7s2.2-.2 3-.7 1.5-1.1 1.9-1.9c.5-.8.8-1.7 1-2.6s.3-2 .3-3-.1-2.1-.3-3.1-.5-1.9-1-2.7c-.5-.8-1.1-1.4-1.9-1.9-.8-.5-1.8-.7-3-.7s-2.2.2-3 .7-1.4 1.1-1.9 1.9-.8 1.7-1 2.7-.3 2-.3 3.1.1 2.1.3 3zm36.3-11.3c-1.1 0-2.1.3-2.8.8-.8.5-1.4 1.2-1.9 2s-.8 1.7-1 2.7-.3 2-.3 2.9.1 1.9.3 2.8.5 1.8 1 2.6c.4.8 1.1 1.4 1.8 1.9s1.7.8 2.8.8c1.7 0 3-.5 3.9-1.4s1.5-2.2 1.7-3.8h6.9c-.5 3.4-1.8 6-4 7.8s-5 2.7-8.5 2.7c-1.9 0-3.7-.3-5.3-1s-3-1.6-4.1-2.7c-1.1-1.2-2-2.6-2.7-4.2-.6-1.6-.9-3.4-.9-5.3 0-2 .3-3.9.9-5.6.6-1.7 1.4-3.2 2.6-4.5s2.5-2.2 4.2-2.9c1.6-.7 3.5-1 5.6-1 1.5 0 3 .2 4.4.6s2.7 1 3.8 1.8 2 1.8 2.7 3 1.1 2.7 1.2 4.3h-7c-.6-2.8-2.3-4.3-5.3-4.3zm16.5-8.6v-5.8h7.1v5.8h-7.1zm7.1 4V293h-7.1v-25.9h7.1v.1zm5.3 7.9c.1-1.7.5-3.1 1.2-4.2s1.7-2 2.8-2.7 2.4-1.1 3.8-1.4c1.4-.3 2.8-.4 4.3-.4 1.3 0 2.6.1 4 .3 1.3.2 2.5.5 3.7 1.1 1.1.5 2 1.3 2.7 2.2.7 1 1.1 2.2 1.1 3.8v13.5c0 1.2.1 2.3.2 3.4s.4 1.9.7 2.4h-7.2l-.3-1.2c-.1-.4-.1-.8-.2-1.3-1.1 1.2-2.5 2-4 2.5s-3.1.7-4.7.7c-1.2 0-2.4-.1-3.5-.4s-2-.8-2.8-1.4-1.4-1.4-1.9-2.4-.7-2.1-.7-3.4c0-1.5.3-2.7.8-3.6.5-1 1.2-1.7 2-2.3.8-.6 1.8-1 2.8-1.3s2.1-.5 3.2-.7c1.1-.2 2.1-.3 3.2-.4s2-.2 2.8-.5 1.4-.5 1.9-.9.7-.9.6-1.7c0-.8-.1-1.4-.4-1.8s-.6-.8-1-1-.9-.4-1.5-.5c-.5-.1-1.1-.1-1.8-.1-1.4 0-2.5.3-3.3.9s-1.3 1.6-1.4 3H824v-.2zm16.4 5.3c-.3.3-.7.5-1.1.6-.5.1-.9.3-1.5.4-.5.1-1.1.2-1.6.2s-1.1.1-1.7.2c-.5.1-1.1.2-1.6.4s-1 .4-1.4.7-.7.6-.9 1.1c-.2.4-.3 1-.3 1.6s.1 1.2.3 1.6.5.8 1 1 .9.4 1.4.5 1.1.2 1.6.2c1.4 0 2.5-.2 3.2-.7.8-.5 1.3-1 1.7-1.7s.6-1.3.7-2c.1-.7.1-1.2.1-1.6l.1-2.5zm19.9-23.1V293h-7.1v-35.7h7.1zm19.2 17.8c.1-1.7.5-3.1 1.2-4.2s1.7-2 2.8-2.7 2.4-1.1 3.8-1.4c1.4-.3 2.8-.4 4.3-.4 1.3 0 2.6.1 4 .3 1.3.2 2.5.5 3.7 1.1 1.1.5 2 1.3 2.7 2.2.7 1 1.1 2.2 1.1 3.8v13.5c0 1.2.1 2.3.2 3.4s.4 1.9.7 2.4h-7.2l-.3-1.2c-.1-.4-.1-.8-.2-1.3-1.1 1.2-2.5 2-4 2.5s-3.1.7-4.7.7c-1.2 0-2.4-.1-3.5-.4s-2-.8-2.8-1.4-1.4-1.4-1.9-2.4-.7-2.1-.7-3.4c0-1.5.3-2.7.8-3.6.5-1 1.2-1.7 2-2.3.8-.6 1.8-1 2.8-1.3s2.1-.5 3.2-.7c1.1-.2 2.1-.3 3.2-.4s2-.2 2.8-.5 1.4-.5 1.9-.9.7-.9.6-1.7c0-.8-.1-1.4-.4-1.8s-.6-.8-1-1-.9-.4-1.5-.5c-.5-.1-1.1-.1-1.8-.1-1.4 0-2.5.3-3.3.9s-1.3 1.6-1.4 3h-7.1v-.2zm16.4 5.3c-.3.3-.7.5-1.1.6-.5.1-.9.3-1.5.4-.5.1-1.1.2-1.6.2s-1.1.1-1.7.2c-.5.1-1.1.2-1.6.4s-1 .4-1.4.7-.7.6-.9 1.1c-.2.4-.3 1-.3 1.6s.1 1.2.3 1.6.5.8 1 1 .9.4 1.4.5 1.1.2 1.6.2c1.4 0 2.5-.2 3.2-.7.8-.5 1.3-1 1.7-1.7s.6-1.3.7-2c.1-.7.1-1.2.1-1.6l.1-2.5zm19.4-13.2v3.6h.1c.9-1.5 2.1-2.6 3.5-3.3s2.9-1 4.4-1c1.9 0 3.5.3 4.7.8s2.2 1.2 2.9 2.1 1.2 2 1.5 3.4c.3 1.3.4 2.8.4 4.4V293h-7.1v-14.6c0-2.1-.3-3.7-1-4.8s-1.8-1.6-3.5-1.6c-1.9 0-3.3.6-4.2 1.7-.9 1.2-1.3 3-1.3 5.7V293h-7.1v-25.9h6.7v.1zm41.2 22.5c-.8 1.4-1.9 2.4-3.3 3-1.4.6-2.9.9-4.6.9-1.9 0-3.6-.4-5.1-1.1s-2.7-1.8-3.6-3c-.9-1.3-1.7-2.8-2.1-4.4-.5-1.7-.7-3.4-.7-5.2 0-1.7.2-3.4.7-5s1.2-3 2.1-4.3c1-1.2 2.1-2.2 3.6-3 1.4-.8 3.1-1.1 5-1.1 1.5 0 3 .3 4.4 1s2.5 1.6 3.3 2.9h.1v-13h7.1V293h-6.8v-3.3h-.1zm-.3-12.8c-.2-1-.5-1.8-1-2.6s-1.1-1.4-1.9-1.8c-.8-.5-1.7-.7-2.9-.7s-2.2.2-3 .7-1.4 1.1-1.9 1.9-.8 1.6-1 2.6-.3 2-.3 3.1c0 1 .1 2 .3 3s.6 1.9 1.1 2.7 1.2 1.4 2 1.9 1.7.7 2.8.7c1.2 0 2.1-.2 2.9-.7.8-.5 1.4-1.1 1.9-1.9s.8-1.7 1-2.7.3-2 .3-3.1-.1-2.1-.3-3.1zm-536.3 69.9c1.1 1 2.6 1.6 4.6 1.6 1.4 0 2.7-.4 3.7-1.1s1.7-1.5 1.9-2.3h6.2c-1 3.1-2.5 5.3-4.6 6.6-2.1 1.3-4.6 2-7.5 2-2 0-3.9-.3-5.5-1s-3-1.6-4.2-2.8c-1.1-1.2-2-2.6-2.6-4.3-.6-1.7-.9-3.5-.9-5.5 0-1.9.3-3.7 1-5.4.6-1.7 1.5-3.1 2.7-4.3 1.2-1.2 2.6-2.2 4.2-2.9 1.6-.7 3.4-1 5.4-1 2.2 0 4.1.4 5.8 1.3 1.6.8 3 2 4 3.4 1.1 1.4 1.8 3.1 2.3 4.9s.6 3.8.5 5.8h-18.7c.1 2.3.6 4 1.7 5zm8-13.6c-.8-.9-2.1-1.4-3.9-1.4-1.1 0-2.1.2-2.8.6-.8.4-1.3.9-1.8 1.4-.5.6-.8 1.2-1 1.8-.2.6-.3 1.2-.3 1.7h11.6c-.3-1.8-.9-3.2-1.8-4.1zm19.9-6v3.6h.1c.9-1.5 2.1-2.6 3.5-3.3 1.4-.7 2.9-1 4.4-1 1.9 0 3.5.3 4.7.8s2.2 1.2 2.9 2.1 1.2 2 1.5 3.4.4 2.8.4 4.4V353h-7.1v-14.6c0-2.1-.3-3.7-1-4.8s-1.8-1.6-3.5-1.6c-1.9 0-3.3.6-4.2 1.7-.9 1.2-1.3 3-1.3 5.7V353H441v-25.9h6.8v.1zm29.3 25.8-8.8-25.9h7.5l5.4 17.7h.1l5.5-17.7h7L485 353h-7.9zm19.8-29.8v-5.8h7.1v5.8h-7.1zm7.1 4V353h-7.1v-25.9h7.1v.1zm12.3 0v4.8h.1c.3-.8.8-1.5 1.3-2.2s1.2-1.3 2-1.8c.7-.5 1.5-.9 2.4-1.1.8-.3 1.7-.4 2.6-.4.5 0 1 .1 1.5.2v6.6c-.3-.1-.7-.1-1.2-.2s-.9-.1-1.3-.1c-1.3 0-2.4.2-3.3.7-.9.4-1.6 1-2.2 1.8-.6.8-.9 1.6-1.2 2.6s-.3 2.1-.3 3.2V353h-7.1v-25.9h6.7v.1zm12 7.3c.6-1.7 1.5-3.1 2.7-4.3 1.2-1.2 2.6-2.1 4.2-2.8 1.6-.7 3.5-1 5.5-1s3.9.3 5.5 1 3.1 1.6 4.2 2.8c1.2 1.2 2.1 2.6 2.7 4.3.6 1.7 1 3.6 1 5.6s-.3 3.9-1 5.6c-.6 1.7-1.5 3.1-2.7 4.3-1.2 1.2-2.6 2.1-4.2 2.7-1.7.6-3.5.9-5.5.9s-3.9-.3-5.5-.9-3-1.5-4.2-2.7-2.1-2.6-2.7-4.3c-.6-1.7-.9-3.5-.9-5.6s.2-3.9.9-5.6zm6.4 8.6c.2 1 .5 1.9 1 2.6.5.8 1.1 1.4 1.9 1.9.8.5 1.8.7 3 .7s2.2-.2 3-.7 1.5-1.1 1.9-1.9c.5-.8.8-1.7 1-2.6s.3-2 .3-3-.1-2.1-.3-3.1-.5-1.9-1-2.7c-.5-.8-1.1-1.4-1.9-1.9-.8-.5-1.8-.7-3-.7s-2.2.2-3 .7-1.4 1.1-1.9 1.9-.8 1.7-1 2.7-.3 2-.3 3.1.1 2.1.3 3zm30.7-15.9v3.6h.1c.9-1.5 2.1-2.6 3.5-3.3s2.9-1 4.4-1c1.9 0 3.5.3 4.7.8s2.2 1.2 2.9 2.1 1.2 2 1.5 3.4c.3 1.3.4 2.8.4 4.4V353h-7.1v-14.6c0-2.1-.3-3.7-1-4.8s-1.8-1.6-3.5-1.6c-1.9 0-3.3.6-4.2 1.7-.9 1.2-1.3 3-1.3 5.7V353h-7.1v-25.9h6.7v.1zm29.8 0v3.5h.1c.9-1.3 2.1-2.4 3.4-3.1 1.3-.7 2.8-1.1 4.5-1.1 1.6 0 3.1.3 4.5.9 1.3.6 2.4 1.8 3.1 3.4.8-1.1 1.8-2.1 3.1-3s2.9-1.3 4.7-1.3c1.4 0 2.6.2 3.8.5s2.2.9 3 1.6 1.5 1.7 2 2.9.7 2.6.7 4.3V353H621v-14.6c0-.9 0-1.7-.1-2.5s-.2-1.4-.5-2-.7-1-1.3-1.3-1.4-.5-2.4-.5-1.8.2-2.4.6c-.6.4-1.1.9-1.5 1.5s-.6 1.3-.7 2.1c-.1.8-.2 1.6-.2 2.4V353h-7.1v-16.8c0-.8-.2-1.4-.4-2.1-.2-.6-.7-1.1-1.2-1.5-.6-.4-1.4-.6-2.6-.6-.3 0-.8.1-1.3.2-.5.2-1.1.4-1.6.9-.5.4-1 1-1.3 1.8-.4.8-.5 1.8-.5 3.1v15h-7.1v-25.9h6.4v.1zm46 19.6c1.1 1 2.6 1.6 4.6 1.6 1.4 0 2.7-.4 3.7-1.1s1.7-1.5 1.9-2.3h6.2c-1 3.1-2.5 5.3-4.6 6.6-2.1 1.3-4.6 2-7.5 2-2 0-3.9-.3-5.5-1s-3-1.6-4.2-2.8c-1.1-1.2-2-2.6-2.6-4.3-.6-1.7-.9-3.5-.9-5.5 0-1.9.3-3.7 1-5.4.6-1.7 1.5-3.1 2.7-4.3 1.2-1.2 2.6-2.2 4.2-2.9 1.6-.7 3.4-1 5.4-1 2.2 0 4.1.4 5.8 1.3 1.6.8 3 2 4 3.4s1.8 3.1 2.3 4.9.6 3.8.5 5.8h-18.7c.1 2.3.6 4 1.7 5zm8-13.6c-.9-.9-2.1-1.4-3.9-1.4-1.1 0-2.1.2-2.8.6-.8.4-1.3.9-1.8 1.4-.5.6-.8 1.2-1 1.8-.2.6-.3 1.2-.3 1.7H651c-.3-1.8-.9-3.2-1.8-4.1zm19.9-6v3.6h.1c.9-1.5 2.1-2.6 3.5-3.3s2.9-1 4.4-1c1.9 0 3.5.3 4.7.8s2.2 1.2 2.9 2.1 1.2 2 1.5 3.4c.3 1.3.4 2.8.4 4.4V353h-7.1v-14.6c0-2.1-.3-3.7-1-4.8s-1.8-1.6-3.5-1.6c-1.9 0-3.3.6-4.2 1.7-.9 1.2-1.3 3-1.3 5.7V353h-7.1v-25.9h6.7v.1zm37.1 0v4.8H701v12.8c0 1.2.2 2 .6 2.4.4.4 1.2.6 2.4.6.4 0 .8 0 1.1-.1.4 0 .7-.1 1.1-.1v5.5c-.6.1-1.3.2-2 .2H702c-1.1 0-2.1-.1-3.1-.2s-1.8-.4-2.6-.9c-.8-.4-1.3-1-1.8-1.8-.4-.8-.7-1.8-.7-3.2V332h-4.3v-4.8h4.3v-7.8h7.1v7.8h5.3zm3.1 7.9c.1-1.7.5-3.1 1.2-4.2s1.7-2 2.8-2.7 2.4-1.1 3.8-1.4c1.4-.3 2.8-.4 4.3-.4 1.3 0 2.6.1 4 .3 1.3.2 2.5.5 3.7 1.1 1.1.5 2 1.3 2.7 2.2.7 1 1.1 2.2 1.1 3.8v13.5c0 1.2.1 2.3.2 3.4s.4 1.9.7 2.4h-7.2l-.3-1.2c-.1-.4-.1-.8-.2-1.3-1.1 1.2-2.5 2-4 2.5s-3.1.7-4.7.7c-1.2 0-2.4-.1-3.5-.4s-2-.8-2.8-1.4-1.4-1.4-1.9-2.4-.7-2.1-.7-3.4c0-1.5.3-2.7.8-3.6.5-1 1.2-1.7 2-2.3.8-.6 1.8-1 2.8-1.3s2.1-.5 3.2-.7c1.1-.2 2.1-.3 3.2-.4s2-.2 2.8-.5 1.4-.5 1.9-.9.7-.9.6-1.7c0-.8-.1-1.4-.4-1.8s-.6-.8-1-1-.9-.4-1.5-.5c-.5-.1-1.1-.1-1.8-.1-1.4 0-2.5.3-3.3.9s-1.3 1.6-1.4 3h-7.1v-.2zm16.4 5.3c-.3.3-.7.5-1.1.6-.5.1-.9.3-1.5.4-.5.1-1.1.2-1.6.2s-1.1.1-1.7.2c-.5.1-1.1.2-1.6.4s-1 .4-1.4.7-.7.6-.9 1.1c-.2.4-.3 1-.3 1.6s.1 1.2.3 1.6.5.8 1 1 .9.4 1.4.5 1.1.2 1.6.2c1.4 0 2.5-.2 3.2-.7.8-.5 1.3-1 1.7-1.7s.6-1.3.7-2c.1-.7.1-1.2.1-1.6l.1-2.5zm19.9-23.1V353h-7.1v-35.7h7.1zm19.7 5.9v-5.8h7.1v5.8h-7.1zm7.1 4V353h-7.1v-25.9h7.1v.1zm12.5 0v3.5h.1c.9-1.3 2.1-2.4 3.4-3.1 1.3-.7 2.8-1.1 4.5-1.1 1.6 0 3.1.3 4.5.9 1.3.6 2.4 1.8 3.1 3.4.8-1.1 1.8-2.1 3.1-3s2.9-1.3 4.7-1.3c1.4 0 2.6.2 3.8.5s2.2.9 3 1.6 1.5 1.7 2 2.9.7 2.6.7 4.3V353h-7.1v-14.6c0-.9 0-1.7-.1-2.5s-.2-1.4-.5-2-.7-1-1.3-1.3-1.4-.5-2.4-.5-1.8.2-2.4.6c-.6.4-1.1.9-1.5 1.5s-.6 1.3-.7 2.1c-.1.8-.2 1.6-.2 2.4V353h-7.1v-16.8c0-.8-.2-1.4-.4-2.1-.2-.6-.7-1.1-1.2-1.5-.6-.4-1.4-.6-2.6-.6-.3 0-.8.1-1.3.2-.5.2-1.1.4-1.6.9-.5.4-1 1-1.3 1.8-.4.8-.5 1.8-.5 3.1v15h-7.1v-25.9h6.4v.1zm45.1 0v3.3h.1c.9-1.4 2-2.4 3.3-3.1 1.3-.6 2.8-.9 4.4-.9 2 0 3.8.4 5.2 1.2 1.5.8 2.7 1.8 3.7 3 1 1.3 1.7 2.7 2.1 4.4s.7 3.4.7 5.3c0 1.7-.2 3.4-.7 5s-1.2 3-2.1 4.2c-1 1.2-2.1 2.2-3.5 2.9-1.4.7-3.1 1.1-5 1.1-1.6 0-3.1-.3-4.4-1-1.3-.7-2.5-1.6-3.3-2.9h-.1v12.2h-7.1V327h6.7v.2zm9.2 20.5c.8-.5 1.4-1.1 1.9-1.8.5-.8.8-1.6 1-2.6s.3-2 .3-3.1c0-1-.1-2-.3-3s-.6-1.9-1.1-2.7-1.1-1.4-1.9-1.9c-.8-.5-1.7-.7-2.9-.7s-2.1.2-2.9.7c-.8.5-1.4 1.1-1.9 1.9s-.8 1.7-1 2.7-.3 2-.3 3.1c0 1 .1 2.1.3 3.1s.6 1.9 1 2.6 1.1 1.4 1.9 1.8c.8.5 1.8.7 2.9.7 1.3-.1 2.2-.4 3-.8zm14.3-12.6c.1-1.7.5-3.1 1.2-4.2s1.7-2 2.8-2.7 2.4-1.1 3.8-1.4c1.4-.3 2.8-.4 4.3-.4 1.3 0 2.6.1 4 .3 1.3.2 2.5.5 3.7 1.1 1.1.5 2 1.3 2.7 2.2.7 1 1.1 2.2 1.1 3.8v13.5c0 1.2.1 2.3.2 3.4s.4 1.9.7 2.4h-7.2l-.3-1.2c-.1-.4-.1-.8-.2-1.3-1.1 1.2-2.5 2-4 2.5s-3.1.7-4.7.7c-1.2 0-2.4-.1-3.5-.4s-2-.8-2.8-1.4-1.4-1.4-1.9-2.4-.7-2.1-.7-3.4c0-1.5.3-2.7.8-3.6.5-1 1.2-1.7 2-2.3.8-.6 1.8-1 2.8-1.3s2.1-.5 3.2-.7c1.1-.2 2.1-.3 3.2-.4s2-.2 2.8-.5 1.4-.5 1.9-.9.7-.9.6-1.7c0-.8-.1-1.4-.4-1.8s-.6-.8-1-1-.9-.4-1.5-.5c-.5-.1-1.1-.1-1.8-.1-1.4 0-2.5.3-3.3.9s-1.3 1.6-1.4 3h-7.1v-.2zm16.4 5.3c-.3.3-.7.5-1.1.6-.5.1-.9.3-1.5.4-.5.1-1.1.2-1.6.2s-1.1.1-1.7.2c-.5.1-1.1.2-1.6.4s-1 .4-1.4.7-.7.6-.9 1.1c-.2.4-.3 1-.3 1.6s.1 1.2.3 1.6.5.8 1 1 .9.4 1.4.5 1.1.2 1.6.2c1.4 0 2.5-.2 3.2-.7.8-.5 1.3-1 1.7-1.7s.6-1.3.7-2c.1-.7.1-1.2.1-1.6l.1-2.5zm25-8.6c-1.1 0-2.1.3-2.8.8-.8.5-1.4 1.2-1.9 2s-.8 1.7-1 2.7-.3 2-.3 2.9.1 1.9.3 2.8.5 1.8 1 2.6c.4.8 1.1 1.4 1.8 1.9s1.7.8 2.8.8c1.7 0 3-.5 3.9-1.4s1.5-2.2 1.7-3.8h6.9c-.5 3.4-1.8 6-4 7.8s-5 2.7-8.5 2.7c-1.9 0-3.7-.3-5.3-1s-3-1.6-4.1-2.7c-1.1-1.2-2-2.6-2.7-4.2-.6-1.6-.9-3.4-.9-5.3 0-2 .3-3.9.9-5.6.6-1.7 1.4-3.2 2.6-4.5s2.5-2.2 4.2-2.9c1.6-.7 3.5-1 5.6-1 1.5 0 3 .2 4.4.6s2.7 1 3.8 1.8 2 1.8 2.7 3 1.1 2.7 1.2 4.3h-7c-.6-2.8-2.3-4.3-5.3-4.3zm30.5-4.6v4.8h-5.2v12.8c0 1.2.2 2 .6 2.4.4.4 1.2.6 2.4.6.4 0 .8 0 1.1-.1.4 0 .7-.1 1.1-.1v5.5c-.6.1-1.3.2-2 .2h-2.2c-1.1 0-2.1-.1-3.1-.2s-1.8-.4-2.6-.9c-.8-.4-1.3-1-1.8-1.8-.4-.8-.7-1.8-.7-3.2V332h-4.3v-4.8h4.3v-7.8h7.1v7.8h5.3zm11.6 18.1v7.7h-7.8v-7.7h7.8zM409.6 451.4h611.5V470H409.6z" class="prefix__prefix__st0" transform="translate(-65.3 -59.8)"/></svg>