<svg xmlns="http://www.w3.org/2000/svg" fill="none" viewBox="0 0 140 35"><g clip-path="url(#a)"><path fill="#000" d="M36.792 12.186h14.175v2.644h-5.574v14.868h-3.065V14.83H36.78v-2.645zm13.57 4.832h2.62v2.447h.05q.129-.52.481-1.001c.235-.322.52-.63.853-.89a4.6 4.6 0 0 1 1.112-.655c.408-.16.828-.247 1.248-.247.322 0 .556.012.68.024s.247.038.383.05v2.694a9 9 0 0 0-.605-.086 5 5 0 0 0-.606-.037c-.47 0-.915.098-1.335.284s-.778.47-1.087.828a4.19 4.19 0 0 0-.742 1.36c-.185.543-.272 1.161-.272 1.865v6.032H50.35V17.018zm20.268 12.68h-2.744V27.93h-.05c-.345.642-.852 1.149-1.532 1.532s-1.371.581-2.076.581c-1.668 0-2.88-.408-3.621-1.236q-1.113-1.242-1.112-3.745v-8.045h2.793v7.773c0 1.113.21 1.904.642 2.361.42.457 1.026.692 1.792.692.594 0 1.076-.086 1.471-.272.396-.185.717-.42.952-.729.247-.297.42-.667.531-1.087s.16-.878.16-1.372V17.03h2.794zm4.758-4.066c.087.816.395 1.384.927 1.718.544.321 1.186.494 1.94.494.26 0 .556-.025.89-.062a3.7 3.7 0 0 0 .94-.235c.296-.11.53-.284.729-.506.185-.223.271-.507.26-.865a1.2 1.2 0 0 0-.396-.878c-.248-.235-.556-.408-.94-.556a9.4 9.4 0 0 0-1.31-.358c-.494-.1-.988-.21-1.495-.322-.52-.11-1.026-.26-1.508-.42a4.6 4.6 0 0 1-1.297-.667 2.93 2.93 0 0 1-.915-1.063c-.235-.433-.346-.964-.346-1.607 0-.692.173-1.26.507-1.73.333-.47.766-.84 1.273-1.125a5.9 5.9 0 0 1 1.717-.605c.63-.111 1.236-.173 1.805-.173a8.4 8.4 0 0 1 1.878.21 4.8 4.8 0 0 1 1.62.68c.481.309.877.716 1.198 1.21.321.495.52 1.1.606 1.805h-2.917c-.136-.667-.433-1.125-.915-1.347-.481-.235-1.038-.346-1.656-.346-.197 0-.432.012-.704.05a4 4 0 0 0-.766.185 1.7 1.7 0 0 0-.606.395.96.96 0 0 0-.247.68c0 .346.124.618.358.828.235.21.544.383.927.532.383.135.816.259 1.31.358s1.001.21 1.52.321c.507.111 1.001.26 1.496.42.494.161.927.384 1.31.668s.692.63.927 1.05.358.952.358 1.57c0 .754-.173 1.384-.519 1.916a4.1 4.1 0 0 1-1.335 1.272 6.3 6.3 0 0 1-1.829.717 9.2 9.2 0 0 1-1.99.223c-.803 0-1.544-.087-2.224-.272s-1.273-.457-1.767-.816a4.05 4.05 0 0 1-1.174-1.372c-.285-.544-.433-1.199-.458-1.952h2.818zm9.22-8.614h2.113V13.21h2.793v3.807h2.521v2.089h-2.52v6.772c0 .297.011.544.036.766.025.21.087.396.173.544q.13.223.408.334c.185.074.42.111.742.111.197 0 .395 0 .593-.012s.395-.037.593-.087v2.163c-.309.037-.618.062-.902.099a7 7 0 0 1-.902.05c-.742 0-1.335-.075-1.78-.21-.445-.137-.803-.347-1.05-.619-.26-.272-.42-.605-.52-1.013a7.6 7.6 0 0 1-.16-1.397V19.13h-2.114v-2.113zm9.405 0h2.644v1.718h.05c.395-.742.94-1.26 1.644-1.582a5.4 5.4 0 0 1 2.286-.482c1.001 0 1.866.173 2.608.531a5.1 5.1 0 0 1 1.854 1.446c.494.618.852 1.335 1.099 2.15.248.816.371 1.694.371 2.62 0 .853-.111 1.681-.333 2.472a6.6 6.6 0 0 1-1.002 2.126 4.9 4.9 0 0 1-1.705 1.47c-.692.372-1.495.557-2.435.557q-.611 0-1.223-.111a5.4 5.4 0 0 1-1.174-.359 4.18 4.18 0 0 1-1.038-.63 4 4 0 0 1-.804-.89h-.05v6.328h-2.792zm9.763 6.352q0-.852-.222-1.668a4.5 4.5 0 0 0-.668-1.434 3.4 3.4 0 0 0-1.1-1 3.1 3.1 0 0 0-1.52-.384c-1.174 0-2.064.408-2.657 1.224q-.89 1.223-.89 3.262c0 .643.074 1.236.235 1.78s.383 1.013.705 1.409q.463.593 1.112.927c.432.235.94.346 1.508.346.642 0 1.174-.136 1.619-.396.444-.26.803-.605 1.087-1.013.284-.42.494-.89.618-1.421a8 8 0 0 0 .173-1.632m4.931-11.185h2.793v2.645h-2.793zm0 4.833h2.793v12.68h-2.793zm5.29-4.833h2.793v17.513h-2.793zm11.357 17.859c-1.013 0-1.915-.173-2.706-.507a6 6 0 0 1-2.015-1.384 6 6 0 0 1-1.248-2.113 8.2 8.2 0 0 1-.432-2.694c0-.965.148-1.854.432-2.67a6 6 0 0 1 1.248-2.113c.544-.594 1.224-1.05 2.015-1.384s1.693-.507 2.706-.507c1.014 0 1.916.173 2.707.506a6 6 0 0 1 2.015 1.385 6 6 0 0 1 1.248 2.113c.284.816.432 1.706.432 2.67 0 .976-.148 1.878-.432 2.694a6 6 0 0 1-1.248 2.113c-.544.593-1.224 1.05-2.015 1.384s-1.693.507-2.707.507m0-2.212c.618 0 1.162-.136 1.62-.396a3.44 3.44 0 0 0 1.124-1.026c.297-.42.507-.902.655-1.433a6.6 6.6 0 0 0 .21-1.631 6.62 6.62 0 0 0-.21-1.62 4.2 4.2 0 0 0-.655-1.433 3.4 3.4 0 0 0-1.124-1.014c-.458-.26-1.002-.395-1.62-.395-.617 0-1.161.136-1.618.395-.458.26-.829.606-1.125 1.014-.297.42-.507.89-.655 1.434a6.6 6.6 0 0 0-.21 1.619c0 .556.074 1.1.21 1.63.136.532.358 1.014.655 1.435.296.42.667.766 1.125 1.025.457.272 1.001.396 1.618.396m7.218-10.814h2.113V13.21h2.793v3.807H140v2.089h-2.522v6.772c0 .297.013.544.038.766.024.21.086.396.173.544a.8.8 0 0 0 .407.334c.186.074.421.111.742.111.198 0 .395 0 .593-.012s.396-.037.593-.087v2.163c-.309.037-.618.062-.902.099a7.23 7.23 0 0 1-.902.05c-.742 0-1.335-.075-1.78-.21-.445-.137-.803-.347-1.05-.619-.26-.272-.42-.605-.519-1.013a7.6 7.6 0 0 1-.161-1.397V19.13h-2.113v-2.113zM16.77 24.36l7.305-1.892 3.065 9.418zm16.76-12.174H20.725L16.77 0l-3.955 12.186L0 12.173 10.369 19.7 6.414 31.886l10.357-7.527 6.402-4.647z"/></g><defs><clipPath id="a"><path fill="#fff" d="M0 0h140v34.382H0z"/></clipPath></defs></svg>