<svg xmlns="http://www.w3.org/2000/svg" fill="none" viewBox="0 0 357 107"><path fill="#fff" d="M126.467 39.912V23.98h4.522v15.407c0 2.998 1.42 5.206 4.996 5.206 3.313 0 4.996-1.735 4.996-5.206V23.98h4.522v15.565c0 5.784-3.839 9.097-9.518 9.097-5.679.053-9.518-2.892-9.518-8.729m23.295-9.097h4.049v2.156h.053c1.157-1.683 2.997-2.472 4.943-2.472 3.944 0 6.1 2.472 6.1 6.626v11.2h-4.154V38.178c0-2.63-1.105-4.05-3.261-4.05-2.261 0-3.628 1.42-3.628 4.365v9.781h-4.154zm19.509-7.1h4.155v4.418h-4.155zm0 7.1h4.155v17.458h-4.155zm9.255 13.357V34.128h-2.366v-3.313h2.366v-5.259h4.154v5.311h3.787v3.313h-3.787v9.045c0 1.314.684 1.683 1.631 1.683.841 0 1.314-.053 2.156-.158v3.523c-.947.263-2.472.316-3.05.316-2.735 0-4.891-1.315-4.891-4.417m9.886-2.577v-3.418c0-4.89 3.681-7.625 7.993-7.625 3.786 0 7.52 2.209 7.52 6.836v3.365h-11.201v.947c0 2.208 1.788 3.523 4.049 3.523 1.42 0 2.84-.946 3.786-2.261l3.208 1.84c-1.367 2.735-4.102 3.892-7.204 3.892-4.259 0-8.151-2.314-8.151-7.1m11.411-3.734v-.473c0-2.366-1.682-3.365-3.365-3.365-1.788 0-3.681.946-3.681 3.575v.263zm7.099 3.944v-4.207c0-4.732 3.313-7.099 7.204-7.099 1.946 0 3.524 1 4.418 2.156h.105V23.98h4.154v24.347h-4.049V46.38c-.999 1.367-3.366 2.366-4.891 2.366-3.891-.052-6.941-2.471-6.941-6.94m11.727-.105v-4.312c0-2.103-1.683-3.365-3.839-3.365-1.735 0-3.628.946-3.628 3.47v4.312c0 2.103 1.63 3.366 3.786 3.366 1.735-.053 3.681-.947 3.681-3.471m17.405-17.721h4.417l10.57 16.564h.053V23.98h4.364v24.347h-4.417L240.524 31.71h-.053v16.617h-4.364zm22.98 19.351c0-3.365 3.05-5.364 6.468-5.364h4.627V36.39c0-1.84-1.209-2.63-3.365-2.63-1.788 0-3.155.632-3.155 1.736v.63h-3.734v-.472c0-3.839 3.629-5.101 6.942-5.101 3.891 0 7.467 1.314 7.467 5.574v8.519c0 .788.105 3.365.315 3.733h-4.101a16 16 0 0 1-.158-1.577h-.053c-1.525 1.577-2.839 1.945-5.101 1.945-3.681-.105-6.152-2.103-6.152-5.416m11.095-1.472v-.842h-4.101c-1.788 0-2.945.631-2.945 2.156 0 1.473 1.21 2.209 3.155 2.209 3.366 0 3.891-1.63 3.891-3.523m9.098 2.314V34.128h-2.367v-3.313h2.367v-5.259h4.154v5.311h3.786v3.313h-3.786v9.045c0 1.314.683 1.683 1.63 1.683.841 0 1.315-.053 2.156-.158v3.523c-.947.263-2.472.316-3.05.316-2.734 0-4.89-1.315-4.89-4.417m10.727-20.456h4.154v4.417h-4.154zm0 7.099h4.154v17.458h-4.154zm7.835 11.043V37.86c0-4.732 4.049-7.31 7.888-7.31 4.207 0 7.993 2.788 7.993 7.258v3.575c0 4.733-4.049 7.31-7.888 7.31-4.207 0-7.993-2.367-7.993-6.836m11.674-.105V37.44c0-2.104-1.63-3.366-3.786-3.366-1.735 0-3.628.947-3.628 3.47v4.313c0 2.103 1.63 3.365 3.786 3.365 1.735 0 3.628-.946 3.628-3.47m7.94-10.938h4.049v2.156h.053c1.157-1.683 2.997-2.472 4.943-2.472 3.944 0 6.1 2.472 6.1 6.626v11.2h-4.154V38.178c0-2.63-1.105-4.05-3.261-4.05-2.261 0-3.628 1.42-3.628 4.365v9.781h-4.154zm18.3 14.46 2.945-2.208c1.104 1.42 2.839 2.261 4.785 2.261 1.683 0 3.471-.578 3.471-2.156 0-1.367-.947-1.682-3.261-2.103l-2.261-.42c-2.839-.527-4.785-1.894-4.785-4.523 0-3.628 3.208-5.732 6.941-5.732 3.155 0 5.364.789 6.836 2.84l-2.997 2.05c-.999-1.209-2.209-1.682-3.891-1.682-1.631 0-2.84.63-2.84 1.946 0 1.209 1.525 1.42 3.313 1.735l2.629.526c2.945.578 4.68 2.26 4.68 4.89 0 4.05-4.101 5.942-7.73 5.942-3.155.053-6.1-.789-7.835-3.365m-209.236 31.92v-8.677c0-4.995 3.786-8.518 9.045-8.518 4.89 0 8.518 2.787 8.518 6.94v1.315h-2.05v-.999c0-3.313-2.472-5.363-6.573-5.363-3.944 0-6.784 2.576-6.784 6.573v8.308c0 3.944 2.84 6.468 6.941 6.468 4.049 0 6.521-2.103 6.521-5.416v-3.47h-6.836V72.41h8.887v5.679c0 4.312-3.418 7.046-8.572 7.046-5.1.105-9.097-2.682-9.097-7.94m22.664 3.576V60.42h1.998v20.455c0 1.314.737 2.366 2.472 2.366.684 0 1.315-.105 1.893-.158v1.525c-.841.263-1.788.316-2.524.316-2.997 0-3.839-2.05-3.839-4.154m8.887-2.051v-4.575c0-4.417 2.997-6.73 6.889-6.73 4.207 0 6.888 2.365 6.888 6.677v4.418c0 4.417-2.892 6.73-6.836 6.73-4.154 0-6.941-2.208-6.941-6.52m11.779-.158v-4.627c0-2.787-1.525-4.786-4.89-4.786-3.208 0-4.891 1.893-4.891 4.943v4.575c0 2.892 1.578 4.89 4.943 4.89 3.261-.052 4.838-1.787 4.838-4.995m8.309 3.208H178v3.05h-1.893V60.473h1.999v10.36h.105c1.104-2.472 3.523-3.471 5.469-3.471 3.575 0 5.994 2.313 5.994 5.889v5.521c0 4.575-3.155 6.468-6.362 6.468-2.209 0-4.523-1.262-5.206-3.47m9.517-2.735v-5.784c0-2.366-1.682-4.102-4.574-4.102-2.367 0-4.943 2.156-4.943 5.68v3.365c0 3.26 2.313 5.364 4.995 5.364 2.209-.053 4.522-1.42 4.522-4.523m5.417 1.262c0-3.838 3.523-5.1 6.31-5.1h4.996v-2.63c0-2.681-1.788-3.575-4.312-3.575-2.104 0-4.365.736-4.365 2.944v.526h-1.84v-.526c0-3.365 3.155-4.627 6.31-4.627 3.313 0 6.257 1.21 6.257 4.89v8.256c0 1 .158 3.523.263 4.26h-1.998c-.053-.579-.158-2.209-.158-2.682h-.052c-1.42 2.629-3.681 3.05-5.785 3.05-3.102.052-5.626-1.63-5.626-4.786m11.306-1.682v-1.893h-4.575c-2.314 0-4.733.578-4.733 3.47 0 2.261 1.998 3.366 4.102 3.366 3.47.052 5.206-1.999 5.206-4.943m6.941 2.156V60.42h1.998v20.455c0 1.314.736 2.366 2.471 2.366.684 0 1.315-.105 1.894-.158v1.525c-.842.263-1.788.316-2.525.316-2.997 0-3.838-2.05-3.838-4.154m17.563-3.576v-8.677c0-4.995 3.786-8.518 9.097-8.518 4.891 0 8.519 2.892 8.519 7.046v1.367h-2.103v-.999c0-3.313-2.472-5.469-6.521-5.469-3.944 0-6.836 2.577-6.836 6.573v8.309c0 3.944 2.84 6.468 6.994 6.468 3.996 0 6.363-2.209 6.363-5.47v-.578h2.103v.947c0 4.312-3.523 7.046-8.413 7.046-5.206 0-9.203-2.787-9.203-8.045m21.087 1.525v-4.575c0-4.417 2.997-6.73 6.888-6.73 4.207 0 6.889 2.365 6.889 6.677v4.418c0 4.417-2.892 6.73-6.836 6.73-4.154 0-6.941-2.208-6.941-6.52m11.779-.158v-4.627c0-2.787-1.525-4.786-4.891-4.786-3.207 0-4.89 1.893-4.89 4.943v4.575c0 2.892 1.578 4.89 4.943 4.89 3.26-.052 4.838-1.787 4.838-4.995m6.257-10.78h1.894v3.26h.052c1.21-2.418 3.471-3.628 5.89-3.628 2.787 0 4.312 1.735 4.785 3.734h.052c1.21-2.42 3.524-3.734 6.048-3.734 3.313 0 5.311 2.156 5.311 5.206v12.2h-1.998V73.724c0-3.05-1.473-4.522-3.944-4.522-2.63 0-4.996 2.209-5.101 5.206V84.82h-1.998v-11.2c-.053-2.946-1.42-4.418-3.892-4.418-2.366 0-5.153 1.946-5.153 5.311v10.36h-1.998zm29.08 0h1.893v3.05h.053c1.209-2.419 3.628-3.47 5.574-3.47 3.575 0 5.994 2.26 5.994 5.784v5.574c0 4.575-3.155 6.468-6.31 6.468-2.208 0-4.417-1.262-5.153-3.47h-.105v9.675H297zm11.516 11.253v-5.731c0-2.367-1.683-4.207-4.575-4.207-2.366 0-4.943 1.998-4.943 5.574v3.47c0 3.26 2.314 5.364 4.996 5.364 2.208 0 4.522-1.367 4.522-4.47m5.416 1.262c0-3.838 3.524-5.1 6.311-5.1h4.995v-2.63c0-2.681-1.788-3.575-4.312-3.575-2.103 0-4.364.736-4.364 2.944v.526h-1.841v-.526c0-3.365 3.155-4.627 6.31-4.627 3.313 0 6.258 1.21 6.258 4.89v8.256c0 1 .158 3.523.263 4.26h-1.998c-.053-.579-.158-2.209-.158-2.682h-.053c-1.419 2.629-3.681 3.05-5.784 3.05-3.103.052-5.627-1.63-5.627-4.786m11.306-1.682v-1.893h-4.575c-2.313 0-4.732.578-4.732 3.47 0 2.261 1.998 3.366 4.101 3.366 3.471.052 5.206-1.999 5.206-4.943m5.995-.21V74.46c0-4.417 2.682-7.046 6.783-7.046 3.997 0 6.468 2.261 6.468 5.627v.526h-1.945v-.684c0-1.735-1.315-3.786-4.523-3.786-3.155 0-4.732 2.26-4.732 5.206v4.101c0 2.945 1.42 5.101 4.785 5.101 3.208 0 4.47-1.998 4.47-3.786v-.578h1.945v.42c0 3.366-2.419 5.627-6.468 5.627-4.206.052-6.783-2.42-6.783-6.784m18.457 2.997V69.465h-3.155v-1.63h3.155V62.47h1.998v5.364h5.049v1.63h-5.049v11.41c0 1.841.947 2.42 2.682 2.42.894 0 1.788-.158 2.577-.368v1.735c-1.104.316-2.472.42-3.155.42-2.156 0-4.102-.788-4.102-3.68M71.2 58.159c-.21-.158-.263-1.052-.263-1.052a56.477 56.477 0 0 0-3.418-13.409c-.105-.263-.157-.42-.157-.578 0-.21.105-.42.63-.684 2.262-1.052 4.102-2.366 5.47-3.733q.314-.316.473-.316c.105 0 .21.105.42.42 2.051 3.524 3.576 7.468 4.628 11.622q.157.71.157 1.104c0 .579-.21 1-.736 1.525-1.367 1.367-3.786 3.313-6.31 4.838-.105 0-.736.368-.894.263m-2.208 5.153s0-.788-.263-.946-.894.105-.894.105c-4.417 1.578-9.255 2.366-14.303 2.524-.947.053-.894.263-.947 1.052-.053 4.47-.158 8.676-.263 12.515 0 0-.053.368.105.526.105.105.526.105.526.105 5.048-.315 9.834-1.42 14.198-3.208.631-.263.736-.683.947-1.42 1.21-4.837.894-11.253.894-11.253m-1.946-22.927c1.998-1.051 3.839-2.313 4.995-3.523.264-.263.369-.473.369-.736s-.105-.526-.368-.947c-2.682-3.733-5.89-6.678-9.36-8.887-1 .684-2.577 1.315-4.207 1.683a54.8 54.8 0 0 1 7.414 11.884c.21.421.316.684.473.737.21.052.474-.105.684-.21m-3.47 1.473c.262-.105.42-.158.525-.368.053-.21-.105-.684-.105-.684-1.946-4.785-4.312-9.15-6.836-12.515-1.367.263-3.996.42-4.943.42.158 4.838.263 9.624.316 14.251 0 .42.052.631.21.736.105.105.315.158.526.158 3.155-.053 7.677-1 10.306-1.998m3.417 36.23c0-.104-.105-.104-.105-.104-.105 0-.263.052-.63.157-5.522 1.736-10.307 2.156-13.41 2.209-.42 0-.526.158-.578.631l-.263 4.102s6.205.157 12.568-2.524c.893-1.157 1.63-2.525 2.26-4.05.053-.157.106-.262.158-.42m12.884-22.663c0-.105-.105 0-.105 0-1.473 1.472-4.155 3.47-7.31 5.048-.999.526-1.104.894-1.157 1.788.053 5.1-.578 8.992-1.682 12.305 0 0-.106.263.21.105s4.89-2.367 8.046-5.574c1.051-1.052 1.892-2.63 2.05-4.312.684-5.574-.052-9.36-.052-9.36m1.577-6.52c2.104-3.63 2.104-6.627 2.104-6.627 0-.21 0-.368-.053-.473-.947-4.154-3.155-8.098-6.468-11.726.053.368.053.683.053 1.051 0 1.262-.263 2.577-.894 3.944-.21.474-.316.789-.316 1.052s.105.42.263.736c.053-.105 3.418 4.47 5.311 12.042M33.444 59.21c.316-5.154 1.735-10.57 3.681-15.723.053-.105.053-.21.053-.263 0-.158-.105-.263-.368-.368-3.26-1.42-5.732-3.366-7.362-5.469 0 0-.105-.105 0-.21s.21 0 .21 0c1.84 1.788 4.522 3.26 7.625 4.417.158.052.21.052.315.052.158 0 .263-.105.474-.526 2.103-4.837 4.837-9.412 7.94-13.198-2.63-.631-5.311-2.051-5.942-3.576 0 0-.105-.158.052-.263.158-.053.263.105.263.105 2.893 3.155 11.359 2.945 11.359 2.945 3.523 0 10.832-1.21 10.832-4.207 0-2.682-3.891-4.101-10.937-4.207-21.35 0-32.814 18.51-32.814 33.182 0 17.72 15.04 33.18 32.445 33.18 0-.262-.21-4.154-.21-4.154 0-.42-.105-.578-.63-.63 0 0-7.573-.579-10.045-1.841-.105-.053-.052-.158.105-.158 0 0 5.101.894 9.992.894 0 0 .526.053.526-.578 0-.526-.21-12.568-.21-12.568-.053-.894-.159-1.052-1.053-1.104-5.258-.263-10.411-1.368-14.881-3.26-.105-.053-.158-.053-.263-.053-.105.052-.105.263-.105.263-.42 5.574.21 10.99.21 10.99 0 .105 0 .158-.105.158s-.105-.105-.105-.105c-.789-2.998-1.21-6.258-1.21-9.729 0-.263.053-1.682.053-1.682q0-.553-.473-.79c-2.104-1.051-3.997-2.366-5.68-3.68 0 0-.105-.105 0-.21.106-.053.158 0 .158 0 1.735 1.104 3.734 2.05 5.785 2.892h.263c0-.053 0-.21.052-.526m40.964-25.977c.578-1.473.683-3.523.052-4.996-.578-1.367-2.418-2.787-2.418-2.787-2.84-2.208-5.995-3.576-7.468-4.154.263.473.421.947.421 1.42 0 .841-.42 1.683-1.157 2.576 3.734 2.156 6.836 4.733 9.57 7.888 0 0 .421.526.684.526.158-.053.316-.473.316-.473m8.045 24.452c0 2.261-.21 4.522-.63 6.625 1.84-3.155 3.312-7.782 3.312-13.146 0-1.525-.105-3.05-.368-4.627-.315 1.577-.841 3.155-1.735 4.627-.579 1-.842 1.683-.736 2.367.105 2.208.157 4.154.157 4.154M68.15 78.404a24 24 0 0 1-1.998 3.418c3.944-1.945 8.414-5.784 11.463-9.728a33.3 33.3 0 0 1-8.098 4.785c-.578.316-1.104 1-1.367 1.525M50.797 46.801q0-1.026-.946-1.105c-3.892-.157-7.625-.893-10.938-2.05-.158-.053-.263-.106-.368-.106s-.21.053-.263.316c-3.05 7.677-3.681 15.986-3.681 15.986-.053.368.053.473.316.578 0 0 6.467 2.472 14.776 2.472 0 0 .578 0 .736-.158.21-.21.263-.368.21-1.052.106-4.049.158-14.881.158-14.881M39.23 41.542c-.21.42-.106.579-.106.579.053.105.21.157.21.157 2.472.842 7.257 1.63 10.623 1.63.368 0 .578-.052.736-.21s.21-.42.263-.841c.105-4.628.21-9.465.473-14.146-1.42-.052-3.207-.262-4.417-.525-3.155 3.944-5.732 8.413-7.783 13.356M53.373 62.84c2.314-.105 8.256-.526 14.25-2.84.842-.315 1-.683 1-1.314 0-.158 0-.316-.053-.526-.578-4.575-1.683-9.15-3.208-13.725-.21-.578-.315-.683-.473-.683-.105 0-.263.052-.473.105-3.313 1.104-6.942 1.735-10.78 1.84-.736.053-.947.526-.947 1.052 0 2.367.053 6.1.053 11.148v4.207s0 .368.158.578c0 .158.21.21.473.158M2.787 74.513c2.524 6.73 8.782 7.31 12.988 11.411.79.789 1.578 1.525 2.472 1.998l.053-.052c-1-1.052-2.104-2.209-2.787-3.576-2.472-4.05-1.578-9.781-3.471-14.145 1.683 2.366 3.208 4.837 4.207 7.572 1.525 4.417 2.103 9.412 5.574 12.725-3.786-1.472-8.203-1.157-11.569-3.838-3.47-2.787-6.783-7.152-7.467-12.095m35.127 19.351c.526 0 .946-.157.946-.157-3.26-.737-6.047-1.315-8.834-3.681-3.68-3.103-6.52-6.205-10.622-8.73.526.316 2.84 5.101 4.785 7.94 1.367 2 3.523 3.103 5.469 3.577 1.63.42 1.998.578 1.998.578s-.263.158-.894 0c0 0-5.416-1.104-8.36-1.104-11.675 0-14.725-4.47-14.725-4.47 3.471 6.258 10.623 8.624 15.303 8.624 6.73-.053 11.726-2.577 14.934-2.577m42.962 2.524c4.68 0 11.831-2.313 15.302-8.624 0 0-3.05 4.47-14.724 4.47-2.944 0-8.36 1.105-8.36 1.105-.632.157-.895 0-.895 0s.368-.158 1.999-.579c1.893-.473 4.101-1.578 5.468-3.576 1.946-2.84 4.26-7.625 4.786-7.94-4.102 2.524-6.942 5.68-10.623 8.73-2.787 2.313-5.574 2.944-8.834 3.68 0 0 .42.158.947.158 3.26.052 8.256 2.576 14.934 2.576M8.203 77.668c1.157 1 3.524 3.155 3.944 3.786 0 0-.263-.894-.526-1.998s-.63-3.786-1.735-6.1c-.841-1.84-4.417-7.73-5.1-10.99 0 0-2.577 10.201 3.417 15.302m73.83 12.778c3.786-1.472 8.15-1.157 11.516-3.838 3.523-2.787 6.888-7.152 7.572-12.095-2.524 6.73-8.782 7.257-13.041 11.358-.789.79-1.578 1.525-2.471 1.999l-.053-.053c.946-1.052 2.103-2.208 2.787-3.576 2.471-4.049 1.578-9.78 3.47-14.145-1.682 2.366-3.207 4.838-4.206 7.572-1.525 4.47-2.104 9.413-5.574 12.778m-9.308 7.362c-5.837-2.366-11.884-5.364-18.878-3.944-.789.158-1.42.316-2.156.316-.684 0-1.315-.158-2.103-.316-7.047-1.42-13.094 1.578-18.93 3.944-4.366 1.578-10.045 1.315-13.883-1.104 1.893 2.209 4.417 3.576 7.046 4.522 4.838 1.788 10.622.579 14.619-2.05 3.47-1.788 6.415-5.364 10.937-4.05-4.627 1.999-8.834 4.838-12.673 8.467l2.367 1.84s4.47-6.047 12.568-9.676c8.045 3.629 12.567 9.676 12.567 9.676l2.42-1.84c-3.84-3.629-8.046-6.416-12.674-8.467 4.523-1.367 7.52 2.209 10.938 4.05 4.049 2.629 9.78 3.838 14.671 2.05 2.63-.946 5.153-2.314 7.047-4.522-3.84 2.471-9.518 2.734-13.883 1.104m22.98-20.14c5.995-5.1 3.47-15.302 3.47-15.302-.683 3.26-4.259 9.202-5.1 10.99-1.105 2.314-1.473 4.996-1.736 6.1s-.525 1.998-.525 1.998c.368-.63 2.734-2.787 3.89-3.786M1.052 48.694c1.788.157 3.523.315 5.31.473 1.42.105 2.157-.42 2.262-1.788.053-.63 0-1.104-.263-1.525-.315-.526-.789-.789-1.788-.894-1.683-.21-3.418-.368-5.1-.578-.211.368-.369.736-.58 1.104-.104 0-.262 0-.367-.052.105-1.105.263-2.21.368-3.313.105 0 .263.052.368.052.105.42.21.789.316 1.21 1.63.21 3.26.368 4.89.578 1.21.158 1.946.579 2.419 1.42.368.684.526 1.472.42 2.471-.21 2.104-1.314 3.208-3.102 3.05-1.788-.157-3.523-.263-5.311-.42-.21.368-.368.736-.526 1.104-.105 0-.263 0-.368-.053.105-1.367.21-2.681.316-4.049.105 0 .262 0 .368.053.157.42.263.789.368 1.157m2.84-10.412c1.892.63 3.838 1.262 5.731 1.893.263-.263.526-.578.789-.841.105.052.21.052.368.105l-.947 2.84c-.105-.053-.263-.053-.368-.106-.052-.42-.052-.789-.105-1.21l-6.783-2.208-.79.947c-.052 0-.21 0-.315-.053.263-.841.526-1.683.842-2.577a379 379 0 0 1 7.099-2.471 173 173 0 0 0-4.786-1.683 14 14 0 0 0-.788.894c-.105-.052-.21-.052-.368-.105.315-1 .683-1.998 1.051-2.945.105.053.21.105.316.105 0 .421 0 .842.052 1.262 2.524.894 5.049 1.841 7.573 2.735-.053.21-.158.42-.21.63-2.788.842-5.575 1.789-8.362 2.788m12.462-15.46 1.998 1.42c-.473 1.21-.841 1.945-1.314 2.629-1.63 2.261-3.892 2.734-6.153 1.104-2.261-1.577-2.997-3.891-1.052-6.626.421-.63 1.105-1.262 1.946-2.05l.158-.158 1.735 1.262-.368.526-1.735-.368a1.863 1.863 0 0 0-.579.526c-1.682 2.103-1.157 4.049.894 5.521 1.84 1.315 3.786 1 4.996-.684.21-.315.263-.525.263-.525l-1.736-1.21-1.051.631-.316-.21 2.261-3.103.316.21zm3.628-.947-5.048-5.1-1.104.42-.263-.263 2.787-2.734.263.263-.473 1.104 5.1 5.206 1.578-1.578-.526-1.735.368-.42 1.42 1.735s-2.209 2.103-4.365 4.364l-.263-.262zm2.472-7.046c-1.63-2.366-1.262-4.89 1.21-6.468 2.26-1.42 4.469-.789 5.784 1.367 1.42 2.367 1.051 4.943-1.21 6.416-2.05 1.367-4.312.788-5.784-1.315m1.314-1.21c1.368 1.946 3.103 2.577 4.312 1.841 1.157-.736 1.21-2.577 0-4.628-1.156-1.893-2.787-2.734-4.206-1.787-1.578.946-1.473 2.682-.106 4.575m9.729-1.472-2.84-6.626H29.5l-.157-.315 3.996-1.683c.947-.368 1.525-.42 2.156-.21.578.21.946.578 1.157 1.104.42 1.104-.158 2.209-1.578 2.945 1.736-.631 2.892-.263 3.418.999.263.684.158 1.42-.21 1.998s-.947.947-2.05 1.42l-3.419 1.525-.158-.316zm.052-4.364.526-.21c1-.421 1.42-1.315 1-2.314-.369-1-1.158-1.368-2.157-.947l-.736.368zm1.578 3.838.473-.21c.684-.263 1-.473 1.21-.947.21-.42.21-.946 0-1.42-.421-1.104-1.315-1.42-2.472-.946l-.631.263zm6.836-5.1-.473 2.681 1.104.263.053.368-2.893.684-.052-.368.894-.631 1.998-8.73.63-.104 4.523 7.52 1.052.262.053.368-3.734.526-.053-.368.894-.631-1.314-2.366zm.105-.631 2.209-.421-1.525-2.787zm8.624 2.156.053-7.152L49.64.42V.053C51.691 0 53.532 0 53.532 0v.368l-1.105.473-.105 7.31 2.051.052.841-1.577h.526l-.21 2.26s-3.313-.157-6.047-.052v-.368zm14.776 2.208 1.105-1.525.578.158-.683 2.05h-.21c-1.21-.052-1.894-.104-2.683-.315-2.576-.683-3.68-2.682-3.102-5.31.63-2.735 2.577-4.05 5.837-3.261.788.158 1.577.578 2.524 1.104l-.579 2.104-.578-.106-.158-1.893s-.315-.157-.683-.263c-2.84-.736-4.207.631-4.68 2.787-.526 2.209.42 3.892 2.366 4.47.42-.105.63-.053.946 0m16.46 7.1 6.047-2.735 1.998 1.998-.263.263-1.157-.368-4.943 5.1.579 1.105-.263.263a206 206 0 0 0-2.63-2.577l.263-.316 1.105.369 3.996-4.207-6.678 2.945-.263-.21 1.998-7.047-3.628 4.575.526 1.051-.263.263-2.524-1.788.263-.263 1.157.369 4.522-5.47-.526-1.05.263-.264 2.314 1.683zm7.361 6.414-2.26 1.683.262 1.157-.263.21a68.95 68.95 0 0 0-2.366-3.05l.316-.21.999.579 5.574-4.365-.263-1.104.315-.21 2.314 2.997c.789 1.051.999 1.682 1.052 2.419 0 .736-.316 1.367-.947 1.84-1.315.947-2.945.473-4.154-1.157zm.737 0c.42.579.736.79 1.104.894.578.106 1.21.053 1.735-.368.526-.368.842-.841.894-1.314s-.052-.842-.42-1.315l-.526-.631-3.103 2.419zm2.787 5.995-2.682.21.052 1.105-.315.157a78 78 0 0 0-1.472-2.576l.315-.21.841.736 8.94-.526.315.736-5.994 6.31.052 1.105-.315.157c-.736-1.788-1.42-3.418-1.42-3.418l.315-.157.842.683 1.788-1.893zm.683-.052 1 1.998 2.26-2.209zm1.315 12.936 1.945.21.158.578-2.103.42-.105-.157c-.631-1.051-.894-1.682-1.105-2.419-.736-2.629.421-4.47 3.05-5.363 2.735-.894 4.996.473 5.732 3.365.21.789.316 1.735.316 2.787l-2.104.526-.158-.578 1.525-1.052c0-.21-.052-.526-.105-.789-.683-2.419-2.471-3.365-4.732-2.63-2.209.737-3.208 2.21-2.63 4.26.053.316.158.526.316.842m8.203 6.205-7.204.525-.368 1.473-.368.052a42 42 0 0 0-.368-4.522l.368-.053.578 1.42 7.204-.526-.157-1.84-1.841-.526-.052-.526 2.471-.21s.578 3.891.578 7.73l-2.471.21-.053-.526 1.736-.788zM69.57 7.888c1.21-2.63 3.628-3.576 6.205-2.209 2.419 1.21 2.945 3.47 1.735 5.68-1.314 2.418-3.786 3.417-6.152 2.208-2.209-1.104-2.892-3.313-1.788-5.68m1.683.473c-1 2.156-.684 3.996.578 4.627 1.21.632 2.84-.262 3.997-2.26 1.051-1.946.946-3.787-.579-4.576-1.577-.84-2.997.106-3.996 2.209M71.2 58.159c-.21-.158-.263-1.052-.263-1.052a56.477 56.477 0 0 0-3.418-13.409c-.105-.263-.157-.42-.157-.578 0-.21.105-.42.63-.684 2.262-1.052 4.102-2.366 5.47-3.733q.314-.316.473-.316c.105 0 .21.105.42.42 2.051 3.524 3.576 7.468 4.628 11.622q.157.71.157 1.104c0 .579-.21 1-.736 1.525-1.367 1.367-3.786 3.313-6.31 4.838-.105 0-.736.368-.894.263m-2.208 5.153s0-.788-.263-.946-.894.105-.894.105c-4.417 1.578-9.255 2.366-14.303 2.524-.947.053-.894.263-.947 1.052-.053 4.47-.158 8.676-.263 12.515 0 0-.053.368.105.526.105.105.526.105.526.105 5.048-.315 9.834-1.42 14.198-3.208.631-.263.736-.683.947-1.42 1.21-4.837.894-11.253.894-11.253m-1.946-22.927c1.998-1.051 3.839-2.313 4.995-3.523.264-.263.369-.473.369-.736s-.105-.526-.368-.947c-2.682-3.733-5.89-6.678-9.36-8.887-1 .684-2.577 1.315-4.207 1.683a54.8 54.8 0 0 1 7.414 11.884c.21.421.316.684.473.737.21.052.474-.105.684-.21m-3.47 1.473c.262-.105.42-.158.525-.368.053-.21-.105-.684-.105-.684-1.946-4.785-4.312-9.15-6.836-12.515-1.367.263-3.996.42-4.943.42.158 4.838.263 9.624.316 14.251 0 .42.052.631.21.736.105.105.315.158.526.158 3.155-.053 7.677-1 10.306-1.998m3.417 36.23c0-.104-.105-.104-.105-.104-.105 0-.263.052-.63.157-5.522 1.736-10.307 2.156-13.41 2.209-.42 0-.526.158-.578.631l-.263 4.102s6.205.157 12.568-2.524c.893-1.157 1.63-2.525 2.26-4.05.053-.157.106-.262.158-.42m12.884-22.663c0-.105-.105 0-.105 0-1.473 1.472-4.155 3.47-7.31 5.048-.999.526-1.104.894-1.157 1.788.053 5.1-.578 8.992-1.682 12.305 0 0-.106.263.21.105s4.89-2.367 8.046-5.574c1.051-1.052 1.892-2.63 2.05-4.312.684-5.574-.052-9.36-.052-9.36m1.577-6.52c2.104-3.63 2.104-6.627 2.104-6.627 0-.21 0-.368-.053-.473-.947-4.154-3.155-8.098-6.468-11.726.053.368.053.683.053 1.051 0 1.262-.263 2.577-.894 3.944-.21.474-.316.789-.316 1.052s.105.42.263.736c.053-.105 3.418 4.47 5.311 12.042M33.444 59.21c.316-5.154 1.735-10.57 3.681-15.723.053-.105.053-.21.053-.263 0-.158-.105-.263-.368-.368-3.26-1.42-5.732-3.366-7.362-5.469 0 0-.105-.105 0-.21s.21 0 .21 0c1.84 1.788 4.522 3.26 7.625 4.417.158.052.21.052.315.052.158 0 .263-.105.474-.526 2.103-4.837 4.837-9.412 7.94-13.198-2.63-.631-5.311-2.051-5.942-3.576 0 0-.105-.158.052-.263.158-.053.263.105.263.105 2.893 3.155 11.359 2.945 11.359 2.945 3.523 0 10.832-1.21 10.832-4.207 0-2.682-3.891-4.101-10.937-4.207-21.35 0-32.814 18.51-32.814 33.182 0 17.72 15.04 33.18 32.445 33.18 0-.262-.21-4.154-.21-4.154 0-.42-.105-.578-.63-.63 0 0-7.573-.579-10.045-1.841-.105-.053-.052-.158.105-.158 0 0 5.101.894 9.992.894 0 0 .526.053.526-.578 0-.526-.21-12.568-.21-12.568-.053-.894-.159-1.052-1.053-1.104-5.258-.263-10.411-1.368-14.881-3.26-.105-.053-.158-.053-.263-.053-.105.052-.105.263-.105.263-.42 5.574.21 10.99.21 10.99 0 .105 0 .158-.105.158s-.105-.105-.105-.105c-.789-2.998-1.21-6.258-1.21-9.729 0-.263.053-1.682.053-1.682q0-.553-.473-.79c-2.104-1.051-3.997-2.366-5.68-3.68 0 0-.105-.105 0-.21.106-.053.158 0 .158 0 1.735 1.104 3.734 2.05 5.785 2.892h.263c0-.053 0-.21.052-.526m40.964-25.977c.578-1.473.683-3.523.052-4.996-.578-1.367-2.418-2.787-2.418-2.787-2.84-2.208-5.995-3.576-7.468-4.154.263.473.421.947.421 1.42 0 .841-.42 1.683-1.157 2.576 3.734 2.156 6.836 4.733 9.57 7.888 0 0 .421.526.684.526.158-.053.316-.473.316-.473m8.045 24.452c0 2.261-.21 4.522-.63 6.625 1.84-3.155 3.312-7.782 3.312-13.146 0-1.525-.105-3.05-.368-4.627-.315 1.577-.841 3.155-1.735 4.627-.579 1-.842 1.683-.736 2.367.105 2.208.157 4.154.157 4.154M68.15 78.404a24 24 0 0 1-1.998 3.418c3.944-1.945 8.414-5.784 11.463-9.728a33.3 33.3 0 0 1-8.098 4.785c-.578.316-1.104 1-1.367 1.525M50.797 46.801q0-1.026-.946-1.105c-3.892-.157-7.625-.893-10.938-2.05-.158-.053-.263-.106-.368-.106s-.21.053-.263.316c-3.05 7.677-3.681 15.986-3.681 15.986-.053.368.053.473.316.578 0 0 6.467 2.472 14.776 2.472 0 0 .578 0 .736-.158.21-.21.263-.368.21-1.052.106-4.049.158-14.881.158-14.881M39.23 41.542c-.21.42-.106.579-.106.579.053.105.21.157.21.157 2.472.842 7.257 1.63 10.623 1.63.368 0 .578-.052.736-.21s.21-.42.263-.841c.105-4.628.21-9.465.473-14.146-1.42-.052-3.207-.262-4.417-.525-3.155 3.944-5.732 8.413-7.783 13.356M53.373 62.84c2.314-.105 8.256-.526 14.25-2.84.842-.315 1-.683 1-1.314 0-.158 0-.316-.053-.526-.578-4.575-1.683-9.15-3.208-13.725-.21-.578-.315-.683-.473-.683-.105 0-.263.052-.473.105-3.313 1.104-6.942 1.735-10.78 1.84-.736.053-.947.526-.947 1.052 0 2.367.053 6.1.053 11.148v4.207s0 .368.158.578c0 .158.21.21.473.158M2.787 74.513c2.524 6.73 8.782 7.31 12.988 11.411.79.789 1.578 1.525 2.472 1.998l.053-.052c-1-1.052-2.104-2.209-2.787-3.576-2.472-4.05-1.578-9.781-3.471-14.145 1.683 2.366 3.208 4.837 4.207 7.572 1.525 4.417 2.103 9.412 5.574 12.725-3.786-1.472-8.203-1.157-11.569-3.838-3.47-2.787-6.783-7.152-7.467-12.095m35.127 19.351c.526 0 .946-.157.946-.157-3.26-.737-6.047-1.315-8.834-3.681-3.68-3.103-6.52-6.205-10.622-8.73.526.316 2.84 5.101 4.785 7.94 1.367 2 3.523 3.103 5.469 3.577 1.63.42 1.998.578 1.998.578s-.263.158-.894 0c0 0-5.416-1.104-8.36-1.104-11.675 0-14.725-4.47-14.725-4.47 3.471 6.258 10.623 8.624 15.303 8.624 6.73-.053 11.726-2.577 14.934-2.577m42.962 2.524c4.68 0 11.831-2.313 15.302-8.624 0 0-3.05 4.47-14.724 4.47-2.944 0-8.36 1.105-8.36 1.105-.632.157-.895 0-.895 0s.368-.158 1.999-.579c1.893-.473 4.101-1.578 5.468-3.576 1.946-2.84 4.26-7.625 4.786-7.94-4.102 2.524-6.942 5.68-10.623 8.73-2.787 2.313-5.574 2.944-8.834 3.68 0 0 .42.158.947.158 3.26.052 8.256 2.576 14.934 2.576M8.203 77.668c1.157 1 3.524 3.155 3.944 3.786 0 0-.263-.894-.526-1.998s-.63-3.786-1.735-6.1c-.841-1.84-4.417-7.73-5.1-10.99 0 0-2.577 10.201 3.417 15.302m73.83 12.778c3.786-1.472 8.15-1.157 11.516-3.838 3.523-2.787 6.888-7.152 7.572-12.095-2.524 6.73-8.782 7.257-13.041 11.358-.789.79-1.578 1.525-2.471 1.999l-.053-.053c.946-1.052 2.103-2.208 2.787-3.576 2.471-4.049 1.578-9.78 3.47-14.145-1.682 2.366-3.207 4.838-4.206 7.572-1.525 4.47-2.104 9.413-5.574 12.778m-9.308 7.362c-5.837-2.366-11.884-5.364-18.878-3.944-.789.158-1.42.316-2.156.316-.684 0-1.315-.158-2.103-.316-7.047-1.42-13.094 1.578-18.93 3.944-4.366 1.578-10.045 1.315-13.883-1.104 1.893 2.209 4.417 3.576 7.046 4.522 4.838 1.788 10.622.579 14.619-2.05 3.47-1.788 6.415-5.364 10.937-4.05-4.627 1.999-8.834 4.838-12.673 8.467l2.367 1.84s4.47-6.047 12.568-9.676c8.045 3.629 12.567 9.676 12.567 9.676l2.42-1.84c-3.84-3.629-8.046-6.416-12.674-8.467 4.523-1.367 7.52 2.209 10.938 4.05 4.049 2.629 9.78 3.838 14.671 2.05 2.63-.946 5.153-2.314 7.047-4.522-3.84 2.471-9.518 2.734-13.883 1.104m22.98-20.14c5.995-5.1 3.47-15.302 3.47-15.302-.683 3.26-4.259 9.202-5.1 10.99-1.105 2.314-1.473 4.996-1.736 6.1s-.525 1.998-.525 1.998c.368-.63 2.734-2.787 3.89-3.786M1.052 48.694c1.788.157 3.523.315 5.31.473 1.42.105 2.157-.42 2.262-1.788.053-.63 0-1.104-.263-1.525-.315-.526-.789-.789-1.788-.894-1.683-.21-3.418-.368-5.1-.578-.211.368-.369.736-.58 1.104-.104 0-.262 0-.367-.052.105-1.105.263-2.21.368-3.313.105 0 .263.052.368.052.105.42.21.789.316 1.21 1.63.21 3.26.368 4.89.578 1.21.158 1.946.579 2.419 1.42.368.684.526 1.472.42 2.471-.21 2.104-1.314 3.208-3.102 3.05-1.788-.157-3.523-.263-5.311-.42-.21.368-.368.736-.526 1.104-.105 0-.263 0-.368-.053.105-1.367.21-2.681.316-4.049.105 0 .262 0 .368.053.157.42.263.789.368 1.157m2.84-10.412c1.892.63 3.838 1.262 5.731 1.893.263-.263.526-.578.789-.841.105.052.21.052.368.105l-.947 2.84c-.105-.053-.263-.053-.368-.106-.052-.42-.052-.789-.105-1.21l-6.783-2.208-.79.947c-.052 0-.21 0-.315-.053.263-.841.526-1.683.842-2.577a379 379 0 0 1 7.099-2.471 173 173 0 0 0-4.786-1.683 14 14 0 0 0-.788.894c-.105-.052-.21-.052-.368-.105.315-1 .683-1.998 1.051-2.945.105.053.21.105.316.105 0 .421 0 .842.052 1.262 2.524.894 5.049 1.841 7.573 2.735-.053.21-.158.42-.21.63-2.788.842-5.575 1.789-8.362 2.788m12.462-15.46 1.998 1.42c-.473 1.21-.841 1.945-1.314 2.629-1.63 2.261-3.892 2.734-6.153 1.104-2.261-1.577-2.997-3.891-1.052-6.626.421-.63 1.105-1.262 1.946-2.05l.158-.158 1.735 1.262-.368.526-1.735-.368a1.863 1.863 0 0 0-.579.526c-1.682 2.103-1.157 4.049.894 5.521 1.84 1.315 3.786 1 4.996-.684.21-.315.263-.525.263-.525l-1.736-1.21-1.051.631-.316-.21 2.261-3.103.316.21zm3.628-.947-5.048-5.1-1.104.42-.263-.263 2.787-2.734.263.263-.473 1.104 5.1 5.206 1.578-1.578-.526-1.735.368-.42 1.42 1.735s-2.209 2.103-4.365 4.364l-.263-.262zm2.472-7.046c-1.63-2.366-1.262-4.89 1.21-6.468 2.26-1.42 4.469-.789 5.784 1.367 1.42 2.367 1.051 4.943-1.21 6.416-2.05 1.367-4.312.788-5.784-1.315m1.314-1.21c1.368 1.946 3.103 2.577 4.312 1.841 1.157-.736 1.21-2.577 0-4.628-1.156-1.893-2.787-2.734-4.206-1.787-1.578.946-1.473 2.682-.106 4.575m9.729-1.472-2.84-6.626H29.5l-.157-.315 3.996-1.683c.947-.368 1.525-.42 2.156-.21.578.21.946.578 1.157 1.104.42 1.104-.158 2.209-1.578 2.945 1.736-.631 2.892-.263 3.418.999.263.684.158 1.42-.21 1.998s-.947.947-2.05 1.42l-3.419 1.525-.158-.316zm.052-4.364.526-.21c1-.421 1.42-1.315 1-2.314-.369-1-1.158-1.368-2.157-.947l-.736.368zm1.578 3.838.473-.21c.684-.263 1-.473 1.21-.947.21-.42.21-.946 0-1.42-.421-1.104-1.315-1.42-2.472-.946l-.631.263zm6.836-5.1-.473 2.681 1.104.263.053.368-2.893.684-.052-.368.894-.631 1.998-8.73.63-.104 4.523 7.52 1.052.262.053.368-3.734.526-.053-.368.894-.631-1.314-2.366zm.105-.631 2.209-.421-1.525-2.787zm8.624 2.156.053-7.152L49.64.42V.053C51.691 0 53.532 0 53.532 0v.368l-1.105.473-.105 7.31 2.051.052.841-1.577h.526l-.21 2.26s-3.313-.157-6.047-.052v-.368zm14.776 2.208 1.105-1.525.578.158-.683 2.05h-.21c-1.21-.052-1.894-.104-2.683-.315-2.576-.683-3.68-2.682-3.102-5.31.63-2.735 2.577-4.05 5.837-3.261.788.158 1.577.578 2.524 1.104l-.579 2.104-.578-.106-.158-1.893s-.315-.157-.683-.263c-2.84-.736-4.207.631-4.68 2.787-.526 2.209.42 3.892 2.366 4.47.42-.105.63-.053.946 0m16.46 7.1 6.047-2.735 1.998 1.998-.263.263-1.157-.368-4.943 5.1.579 1.105-.263.263a206 206 0 0 0-2.63-2.577l.263-.316 1.105.369 3.996-4.207-6.678 2.945-.263-.21 1.998-7.047-3.628 4.575.526 1.051-.263.263-2.524-1.788.263-.263 1.157.369 4.522-5.47-.526-1.05.263-.264 2.314 1.683zm7.361 6.414-2.26 1.683.262 1.157-.263.21a68.95 68.95 0 0 0-2.366-3.05l.316-.21.999.579 5.574-4.365-.263-1.104.315-.21 2.314 2.997c.789 1.051.999 1.682 1.052 2.419 0 .736-.316 1.367-.947 1.84-1.315.947-2.945.473-4.154-1.157zm.737 0c.42.579.736.79 1.104.894.578.106 1.21.053 1.735-.368.526-.368.842-.841.894-1.314s-.052-.842-.42-1.315l-.526-.631-3.103 2.419zm2.787 5.995-2.682.21.052 1.105-.315.157a78 78 0 0 0-1.472-2.576l.315-.21.841.736 8.94-.526.315.736-5.994 6.31.052 1.105-.315.157c-.736-1.788-1.42-3.418-1.42-3.418l.315-.157.842.683 1.788-1.893zm.683-.052 1 1.998 2.26-2.209zm1.315 12.936 1.945.21.158.578-2.103.42-.105-.157c-.631-1.051-.894-1.682-1.105-2.419-.736-2.629.421-4.47 3.05-5.363 2.735-.894 4.996.473 5.732 3.365.21.789.316 1.735.316 2.787l-2.104.526-.158-.578 1.525-1.052c0-.21-.052-.526-.105-.789-.683-2.419-2.471-3.365-4.732-2.63-2.209.737-3.208 2.21-2.63 4.26.053.316.158.526.316.842m8.203 6.205-7.204.525-.368 1.473-.368.052a42 42 0 0 0-.368-4.522l.368-.053.578 1.42 7.204-.526-.157-1.84-1.841-.526-.052-.526 2.471-.21s.578 3.891.578 7.73l-2.471.21-.053-.526 1.736-.788zM69.57 7.888c1.21-2.63 3.628-3.576 6.205-2.209 2.419 1.21 2.945 3.47 1.735 5.68-1.314 2.418-3.786 3.417-6.152 2.208-2.209-1.104-2.892-3.313-1.788-5.68m1.683.473c-1 2.156-.684 3.996.578 4.627 1.21.632 2.84-.262 3.997-2.26 1.051-1.946.946-3.787-.579-4.576-1.577-.84-2.997.106-3.996 2.209"/></svg>